<svg width="18" height="17" viewBox="0 0 18 17" fill="none" xmlns="http://www.w3.org/2000/svg">
<path d="M9.00005 6.29993C7.53665 6.29993 6.30005 7.53653 6.30005 8.99993C6.30005 10.4633 7.53665 11.6999 9.00005 11.6999C10.4634 11.6999 11.7 10.4633 11.7 8.99993C11.7 7.53653 10.4634 6.29993 9.00005 6.29993Z" fill="#FAFAFA"/>
<path d="M16.2 2.7H13.8726L11.4363 0.263701C11.3529 0.179963 11.2537 0.113554 11.1445 0.0682969C11.0353 0.0230401 10.9182 -0.000170504 10.8 9.42906e-07H7.2C7.08179 -0.000170504 6.96471 0.0230401 6.85551 0.0682969C6.74631 0.113554 6.64713 0.179963 6.5637 0.263701L4.1274 2.7H1.8C0.8073 2.7 0 3.5073 0 4.5V14.4C0 15.3927 0.8073 16.2 1.8 16.2H16.2C17.1927 16.2 18 15.3927 18 14.4V4.5C18 3.5073 17.1927 2.7 16.2 2.7ZM9 13.5C6.561 13.5 4.5 11.439 4.5 9C4.5 6.561 6.561 4.5 9 4.5C11.439 4.5 13.5 6.561 13.5 9C13.5 11.439 11.439 13.5 9 13.5Z" fill="#FAFAFA"/>
</svg>
