<svg width="15" height="15" viewBox="0 0 15 15" fill="none" xmlns="http://www.w3.org/2000/svg">
<path d="M4.63 14.4292L6.38675 12.6292C5.77292 12.4959 5.1882 12.2529 4.66075 11.9117L4.63 14.4292ZM10.37 0.571L8.61375 2.37075C9.2276 2.50416 9.81231 2.74731 10.3398 3.0885L10.37 0.571ZM2.371 8.6135L0.57075 10.3698L3.08825 10.3392C2.74715 9.81191 2.50417 9.22726 2.371 8.6135ZM12.629 6.38675L14.4292 4.63L11.9117 4.66075C12.2528 5.18818 12.4958 5.77291 12.629 6.38675ZM3.0885 4.6605L0.571 4.62975L2.37125 6.3865C2.50415 5.77258 2.74716 5.1878 3.0885 4.6605ZM11.9115 10.3395L14.429 10.37L12.6287 8.6135C12.4958 9.22741 12.2528 9.81217 11.9115 10.3395ZM6.38675 2.37075L4.63 0.57075L4.66075 3.08825C5.1882 2.74714 5.77292 2.50407 6.38675 2.37075ZM8.61325 12.6292L10.37 14.429L10.3392 11.9117C9.81174 12.2528 9.22705 12.4958 8.61325 12.6292ZM3.188 10.4905L2.19625 12.8033L4.50925 11.812C3.99371 11.4536 3.54628 11.0061 3.188 10.4905ZM11.812 4.50975L12.8033 2.19675L10.4908 3.188C11.0063 3.54646 11.4537 3.99407 11.812 4.50975ZM2.25 7.5C2.25 7.1805 2.28325 6.869 2.338 6.56475L0 7.49975L2.338 8.43475C2.28085 8.12641 2.2514 7.81358 2.25 7.5ZM15 7.5L12.662 6.56475C12.7168 6.869 12.75 7.1805 12.75 7.5C12.75 7.81975 12.7168 8.13125 12.662 8.43525L15 7.5ZM4.50975 3.18775L2.19675 2.1965L3.188 4.5095C3.54659 3.99391 3.99416 3.54634 4.50975 3.18775ZM10.4902 11.812L12.8033 12.8033L11.812 10.4905C11.4535 11.0061 11.0059 11.4536 10.4902 11.812ZM8.435 2.338L7.5 0L6.565 2.338C6.86875 2.28325 7.18025 2.25 7.5 2.25C7.81975 2.25 8.13125 2.28325 8.435 2.338ZM6.565 12.662L7.5 15L8.435 12.662C8.13125 12.7168 7.81975 12.75 7.5 12.75C7.18025 12.75 6.86875 12.7168 6.565 12.662Z" fill="white"/>
<path d="M7.5 12.25C10.1234 12.25 12.25 10.1234 12.25 7.5C12.25 4.87665 10.1234 2.75 7.5 2.75C4.87665 2.75 2.75 4.87665 2.75 7.5C2.75 10.1234 4.87665 12.25 7.5 12.25Z" fill="white"/>
</svg>
