<svg width="14" height="14" viewBox="0 0 14 14" fill="none" xmlns="http://www.w3.org/2000/svg">
<path d="M2.05125 3.05176e-05C1.40023 0.649177 0.883899 1.42057 0.531922 2.26987C0.179945 3.11918 -0.000739875 4.02967 0.000248171 4.94903C0.000248171 6.88103 0.784248 8.63103 2.05125 9.89802L3.03825 8.91103C2.51644 8.39201 2.10294 7.77451 1.82175 7.09436C1.54056 6.41422 1.39729 5.685 1.40025 4.94903C1.40025 3.40203 2.02325 1.99503 3.03825 0.98703L2.05125 3.05176e-05ZM11.9492 3.05176e-05L10.9622 0.98703C11.4835 1.50644 11.8967 2.12402 12.1778 2.80407C12.459 3.48412 12.6025 4.21315 12.6002 4.94903C12.6002 6.50303 11.9772 7.90303 10.9622 8.91103L11.9492 9.89802C12.6003 9.24888 13.1166 8.47749 13.4686 7.62818C13.8205 6.77887 14.0012 5.86838 14.0002 4.94903C14.0002 3.01703 13.2162 1.26703 11.9492 3.05176e-05ZM4.03225 1.98103C3.64151 2.3702 3.33152 2.83275 3.12009 3.3421C2.90866 3.85144 2.79997 4.39754 2.80025 4.94903C2.80025 6.10403 3.26925 7.15403 4.03225 7.91703L5.01925 6.93003C4.759 6.67003 4.55268 6.36119 4.41213 6.02123C4.27158 5.68127 4.19957 5.31689 4.20025 4.94903C4.20025 4.17203 4.51525 3.47203 5.01925 2.96803L4.03225 1.98103ZM9.96824 1.98103L8.98124 2.96803C9.24149 3.22802 9.44781 3.53687 9.58836 3.87683C9.72891 4.21679 9.80091 4.58116 9.80024 4.94903C9.80024 5.72603 9.48524 6.42603 8.98124 6.93003L9.96824 7.91703C10.359 7.52785 10.669 7.0653 10.8804 6.55596C11.0918 6.04661 11.2005 5.50051 11.2002 4.94903C11.2002 3.79403 10.7312 2.74403 9.96824 1.98103ZM7.00024 3.54903C6.62894 3.54903 6.27285 3.69653 6.0103 3.95908C5.74774 4.22163 5.60024 4.57772 5.60024 4.94903C5.60024 5.32033 5.74774 5.67643 6.0103 5.93898C6.27285 6.20153 6.62894 6.34903 7.00024 6.34903C7.37155 6.34903 7.72764 6.20153 7.99019 5.93898C8.25274 5.67643 8.40024 5.32033 8.40024 4.94903C8.40024 4.57772 8.25274 4.22163 7.99019 3.95908C7.72764 3.69653 7.37155 3.54903 7.00024 3.54903ZM6.30024 7.74903V10.549H5.60024C5.41459 10.549 5.23655 10.6228 5.10527 10.754C4.974 10.8853 4.90025 11.0634 4.90025 11.249H0.000248171V12.649H4.90025C4.90025 12.8347 4.974 13.0127 5.10527 13.144C5.23655 13.2753 5.41459 13.349 5.60024 13.349H8.40024C8.58589 13.349 8.76394 13.2753 8.89522 13.144C9.02649 13.0127 9.10024 12.8347 9.10024 12.649H14.0002V11.249H9.10024C9.10024 11.0634 9.02649 10.8853 8.89522 10.754C8.76394 10.6228 8.58589 10.549 8.40024 10.549H7.70024V7.74903H6.30024Z" fill="white"/>
</svg>
