<svg width="11" height="15" viewBox="0 0 11 15" fill="none" xmlns="http://www.w3.org/2000/svg">
<path d="M5.35714 0V3.75C5.35714 4.17624 5.52647 4.58502 5.82786 4.88642C6.12926 5.18782 6.53804 5.35714 6.96429 5.35714H10.7143V13.3929C10.7143 13.8191 10.545 14.2279 10.2436 14.5293C9.94217 14.8307 9.53338 15 9.10714 15H1.60714C1.1809 15 0.772119 14.8307 0.470721 14.5293C0.169324 14.2279 0 13.8191 0 13.3929V1.60714C0 1.1809 0.169324 0.772119 0.470721 0.470721C0.772119 0.169324 1.1809 0 1.60714 0H5.35714ZM6.42857 0.267857V3.75C6.42857 3.89208 6.48501 4.02834 6.58548 4.12881C6.68594 4.22927 6.82221 4.28571 6.96429 4.28571H10.4464L6.42857 0.267857Z" fill="white"/>
</svg>
