<svg width="15" height="14" viewBox="0 0 15 14" fill="none" xmlns="http://www.w3.org/2000/svg">
<path d="M4.67615 1.84669C4.67615 2.86658 3.84932 3.69324 2.82946 3.69324C1.80957 3.69324 0.98291 2.86655 0.98291 1.84669C0.98291 0.826827 1.8096 0 2.82946 0C3.84936 0 4.67615 0.826827 4.67615 1.84669Z" fill="white"/>
<path d="M3.87131 8.176L4.04498 6.75554C4.13962 6.01373 4.5027 5.38234 5.03934 4.94048C4.67637 4.48275 4.12386 4.19867 3.50834 4.19867H2.13513C1.14077 4.19867 0.304312 4.94048 0.193797 5.93484L0.00437607 7.51307C-0.0271289 7.71825 0.114904 7.90767 0.320079 7.95507C1.10928 8.12873 1.9616 8.20763 2.82969 8.20763C3.19266 8.22325 3.53987 8.2075 3.87131 8.17599V8.176Z" fill="white"/>
<path d="M14.0198 1.84669C14.0198 2.86658 13.193 3.69324 12.1731 3.69324C11.1532 3.69324 10.3265 2.86655 10.3265 1.84669C10.3265 0.826827 11.1532 0 12.1731 0C13.193 0 14.0198 0.826827 14.0198 1.84669Z" fill="white"/>
<path d="M14.8092 5.91903C14.6986 4.92467 13.8464 4.18286 12.8678 4.18286H11.4946C10.8791 4.18286 10.3266 4.46693 9.96362 4.92467C10.5003 5.36666 10.8791 5.99792 10.958 6.73973L11.1317 8.16019C11.4631 8.19169 11.8261 8.20758 12.1734 8.20758C13.0573 8.20758 13.8938 8.11293 14.683 7.95502C14.8882 7.90763 15.0145 7.7182 14.9987 7.51302L14.8092 5.91903Z" fill="white"/>
<path d="M10.3266 8.4443L10.1372 6.85017C10.0266 5.87157 9.1902 5.12976 8.19584 5.12976H6.82263C5.82827 5.12976 4.99181 5.87157 4.8813 6.85017L4.69188 8.4443C4.66037 8.64947 4.8024 8.85463 5.00758 8.88629C5.79678 9.05996 6.6491 9.13885 7.51719 9.13885C8.40104 9.13885 9.2376 9.04421 10.0268 8.88629C10.2161 8.85466 10.3424 8.64948 10.3266 8.4443H10.3266Z" fill="white"/>
<path d="M9.34815 2.7779C9.34815 3.79779 8.52132 4.62445 7.50146 4.62445C6.4816 4.62445 5.65491 3.79776 5.65491 2.7779C5.65491 1.75801 6.4816 0.931213 7.50146 0.931213C8.52132 0.931213 9.34815 1.75804 9.34815 2.7779Z" fill="white"/>
<path d="M9.23746 11.2061L8.43253 11.143C8.30625 11.1273 8.17997 11.0484 8.13271 10.9221L7.81701 10.1803C7.69073 9.89621 7.28037 9.89621 7.16985 10.1803L6.85415 10.9221C6.80676 11.0484 6.69636 11.1273 6.55433 11.143L5.76513 11.2061C5.44943 11.2377 5.32314 11.6165 5.55996 11.8217L6.17549 12.3426C6.27013 12.4214 6.31752 12.5635 6.28602 12.6898L6.0966 13.479C6.0177 13.7788 6.34916 14.0156 6.61747 13.8578L7.31189 13.4317C7.42242 13.3686 7.56445 13.3686 7.67486 13.4317L8.36928 13.8578C8.63759 14.0156 8.96904 13.7789 8.89016 13.479L8.70073 12.6898C8.66923 12.5635 8.71649 12.4214 8.81126 12.3426L9.42679 11.8217C9.67948 11.6165 9.5532 11.2378 9.2375 11.2061H9.23746Z" fill="white"/>
<path d="M13.9093 10.2749L13.1044 10.2118C12.9781 10.196 12.8518 10.1171 12.8046 9.99087L12.4889 9.24906C12.3626 8.96499 11.9522 8.96499 11.8417 9.24906L11.526 9.99087C11.4786 10.1171 11.3682 10.196 11.2262 10.2118L10.437 10.2749C10.1213 10.3064 9.99501 10.6853 10.2318 10.8905L10.8474 11.4113C10.942 11.4902 10.9894 11.6323 10.9579 11.7585L10.7685 12.5477C10.6896 12.8476 11.021 13.1001 11.2893 12.9266L11.9838 12.5005C12.0943 12.4374 12.2363 12.4374 12.3467 12.5005L13.0412 12.9266C13.3095 13.0844 13.6409 12.8477 13.562 12.5477L13.3726 11.7585C13.3411 11.6323 13.3884 11.4902 13.4831 11.4113L14.0987 10.8905C14.3514 10.6853 14.2251 10.3066 13.9094 10.2749H13.9093Z" fill="white"/>
<path d="M4.56547 10.2749L3.76054 10.2118C3.63425 10.196 3.50798 10.1171 3.46072 9.99087L3.14501 9.24906C3.01873 8.96499 2.60837 8.96499 2.49786 9.24906L2.18215 9.99087C2.13476 10.1171 2.02437 10.196 1.88233 10.2118L1.09313 10.2749C0.777431 10.3064 0.651143 10.6853 0.887963 10.8905L1.50349 11.4113C1.59814 11.4902 1.64552 11.6323 1.61402 11.7585L1.4246 12.5477C1.34571 12.8476 1.67716 13.1001 1.94548 12.9266L2.63989 12.5005C2.75042 12.4374 2.89245 12.4374 3.00286 12.5005L3.69728 12.9266C3.96559 13.0844 4.29705 12.8477 4.21816 12.5477L4.02874 11.7585C3.99723 11.6323 4.04449 11.4902 4.13926 11.4113L4.75479 10.8905C5.00748 10.6853 4.88121 10.3066 4.5655 10.2749H4.56547Z" fill="white"/>
</svg>
