<svg width="15" height="13" viewBox="0 0 15 13" fill="none" xmlns="http://www.w3.org/2000/svg">
<path d="M12.8571 0H2.14286C1.57473 0.000620376 1.03004 0.226584 0.628313 0.628314C0.226584 1.03004 0.000620376 1.57473 0 2.14286V10.7143C0.000620376 11.2824 0.226584 11.8271 0.628313 12.2288C1.03004 12.6306 1.57473 12.8565 2.14286 12.8571H12.8571C13.4253 12.8565 13.97 12.6306 14.3717 12.2288C14.7734 11.8271 14.9994 11.2824 15 10.7143V2.14286C14.9994 1.57473 14.7734 1.03004 14.3717 0.628314C13.97 0.226584 13.4253 0.000620376 12.8571 0ZM10.1786 2.14286C10.4964 2.14286 10.8072 2.23711 11.0715 2.41371C11.3357 2.5903 11.5417 2.84131 11.6634 3.13497C11.785 3.42864 11.8168 3.75178 11.7548 4.06354C11.6928 4.37529 11.5398 4.66166 11.315 4.88642C11.0902 5.11118 10.8039 5.26425 10.4921 5.32626C10.1804 5.38827 9.85721 5.35645 9.56354 5.23481C9.26988 5.11317 9.01888 4.90717 8.84228 4.64288C8.66569 4.37859 8.57143 4.06786 8.57143 3.75C8.57187 3.3239 8.74134 2.91537 9.04264 2.61407C9.34394 2.31277 9.75247 2.1433 10.1786 2.14286ZM2.14286 11.7857C1.8587 11.7857 1.58617 11.6728 1.38524 11.4719C1.18431 11.271 1.07143 10.9984 1.07143 10.7143V8.44989L4.24687 5.62734C4.55325 5.35562 4.9517 5.21093 5.36104 5.22275C5.77038 5.23457 6.15981 5.40201 6.45 5.69096L8.62466 7.86094L4.69989 11.7857H2.14286ZM13.9286 10.7143C13.9286 10.9984 13.8157 11.271 13.6148 11.4719C13.4138 11.6728 13.1413 11.7857 12.8571 11.7857H6.21529L10.2807 7.72031C10.5685 7.47553 10.9338 7.34068 11.3116 7.3397C11.6895 7.33872 12.0554 7.47168 12.3445 7.71496L13.9286 9.03482V10.7143Z" fill="white"/>
</svg>
