<svg width="18" height="16" viewBox="0 0 18 16" fill="none" xmlns="http://www.w3.org/2000/svg">
<path d="M6.75 5.0625C6.75 5.51005 6.57221 5.93928 6.25574 6.25574C5.93928 6.57221 5.51005 6.75 5.0625 6.75C4.61495 6.75 4.18572 6.57221 3.86926 6.25574C3.55279 5.93928 3.375 5.51005 3.375 5.0625C3.375 4.61495 3.55279 4.18572 3.86926 3.86926C4.18572 3.55279 4.61495 3.375 5.0625 3.375C5.51005 3.375 5.93928 3.55279 6.25574 3.86926C6.57221 4.18572 6.75 4.61495 6.75 5.0625Z" fill="#FAFAFA"/>
<path d="M2.25 0C1.65326 0 1.08097 0.237053 0.65901 0.65901C0.237053 1.08097 0 1.65326 0 2.25V13.5C0 14.0967 0.237053 14.669 0.65901 15.091C1.08097 15.5129 1.65326 15.75 2.25 15.75H15.75C16.3467 15.75 16.919 15.5129 17.341 15.091C17.7629 14.669 18 14.0967 18 13.5V2.25C18 1.65326 17.7629 1.08097 17.341 0.65901C16.919 0.237053 16.3467 0 15.75 0H2.25V0ZM15.75 1.125C16.0484 1.125 16.3345 1.24353 16.5455 1.4545C16.7565 1.66548 16.875 1.95163 16.875 2.25V9.5625L12.6259 7.37212C12.5204 7.31928 12.4009 7.30094 12.2844 7.31972C12.1679 7.3385 12.0603 7.39343 11.9767 7.47675L7.803 11.6505L4.8105 9.657C4.70245 9.58507 4.57286 9.55271 4.44368 9.56543C4.3145 9.57814 4.1937 9.63513 4.10175 9.72675L1.125 12.375V2.25C1.125 1.95163 1.24353 1.66548 1.4545 1.4545C1.66548 1.24353 1.95163 1.125 2.25 1.125H15.75Z" fill="#FAFAFA"/>
</svg>
