<svg width="300" height="173" viewBox="0 0 300 173" fill="none" xmlns="http://www.w3.org/2000/svg">
<path opacity="0.1" d="M10.9937 171.853H290.329C295.729 161.708 297.817 148.81 296.836 137.357C295.855 125.914 290.688 114.662 281.861 107.301C270.46 97.7774 254.451 95.51 242.576 86.5879C228.16 75.7465 222.106 56.9639 209.483 44.0765C196.121 30.4298 176.389 24.6189 157.3 24.0494C149.148 23.8068 140.806 24.4607 133.266 27.5507C114.631 35.1861 105.065 55.2659 94.4348 72.3823C90.9967 77.919 86.3459 83.846 79.8389 84.1518C75.8841 84.3311 72.2141 82.3378 68.5334 80.8719C46.5659 72.0976 19.5677 83.2448 7.34478 103.493C-4.87819 123.742 -0.585917 151.236 10.9937 171.853Z" fill="#F7F7F7"/>
<path d="M82.3174 131.63C82.3174 134.436 84.5953 136.714 87.4006 136.714H169.829C172.634 136.714 174.912 134.436 174.912 131.63V20.7378H82.3174V131.63Z" fill="#E8E8E8"/>
<path d="M169.829 7.57635H87.4006C84.5953 7.57635 82.3174 9.85432 82.3174 12.6596V20.7379H174.902V12.6596C174.912 9.85432 172.634 7.57635 169.829 7.57635Z" fill="#277EF1"/>
<path d="M88.7717 16.4983C89.7385 16.4983 90.5223 15.7145 90.5223 14.7476C90.5223 13.7808 89.7385 12.997 88.7717 12.997C87.8048 12.997 87.021 13.7808 87.021 14.7476C87.021 15.7145 87.8048 16.4983 88.7717 16.4983Z" fill="#373660"/>
<path d="M93.8232 16.4983C94.79 16.4983 95.5738 15.7145 95.5738 14.7476C95.5738 13.7807 94.79 12.9969 93.8232 12.9969C92.8563 12.9969 92.0725 13.7807 92.0725 14.7476C92.0725 15.7145 92.8563 16.4983 93.8232 16.4983Z" fill="white"/>
<path d="M99.1911 16.4983C100.158 16.4983 100.942 15.7145 100.942 14.7476C100.942 13.7807 100.158 12.9969 99.1911 12.9969C98.2242 12.9969 97.4404 13.7807 97.4404 14.7476C97.4404 15.7145 98.2242 16.4983 99.1911 16.4983Z" fill="white"/>
<path d="M122.699 130.755H91.461C90.1321 130.755 89.0459 129.679 89.0459 128.34V29.818C89.0459 28.4892 90.1216 27.403 91.461 27.403H122.699C124.027 27.403 125.114 28.4787 125.114 29.818V128.34C125.114 129.669 124.027 130.755 122.699 130.755Z" fill="white"/>
<path d="M104.359 41.7668H96.7236C95.901 41.7668 95.2366 41.1024 95.2366 40.2798V32.9819C95.2366 32.1593 95.901 31.4949 96.7236 31.4949H104.359C105.182 31.4949 105.846 32.1593 105.846 32.9819V40.2798C105.846 41.1024 105.182 41.7668 104.359 41.7668Z" fill="#E8E8E8"/>
<path d="M104.359 59.421H96.7236C95.901 59.421 95.2366 58.7566 95.2366 57.934V50.6361C95.2366 49.8135 95.901 49.1491 96.7236 49.1491H104.359C105.182 49.1491 105.846 49.8135 105.846 50.6361V57.934C105.846 58.7566 105.182 59.421 104.359 59.421Z" fill="#E8E8E8"/>
<path d="M104.359 77.0752H96.7236C95.901 77.0752 95.2366 76.4108 95.2366 75.5882V68.2903C95.2366 67.4677 95.901 66.8033 96.7236 66.8033H104.359C105.182 66.8033 105.846 67.4677 105.846 68.2903V75.5882C105.846 76.4108 105.182 77.0752 104.359 77.0752Z" fill="#E8E8E8"/>
<path d="M104.359 92.8628H96.7236C95.901 92.8628 95.2366 92.1984 95.2366 91.3758V84.0779C95.2366 83.2553 95.901 82.5909 96.7236 82.5909H104.359C105.182 82.5909 105.846 83.2553 105.846 84.0779V91.3758C105.846 92.1984 105.182 92.8628 104.359 92.8628Z" fill="#E8E8E8"/>
<path d="M104.116 110.517H96.4809C95.6583 110.517 94.9939 109.853 94.9939 109.03V101.732C94.9939 100.91 95.6583 100.245 96.4809 100.245H104.116C104.939 100.245 105.603 100.91 105.603 101.732V109.03C105.603 109.853 104.939 110.517 104.116 110.517Z" fill="#E8E8E8"/>
<path d="M104.116 128.171H96.4809C95.6583 128.171 94.9939 127.507 94.9939 126.684V119.386C94.9939 118.564 95.6583 117.899 96.4809 117.899H104.116C104.939 117.899 105.603 118.564 105.603 119.386V126.684C105.603 127.507 104.939 128.171 104.116 128.171Z" fill="#E8E8E8"/>
<path d="M114.736 32.4018L115.728 34.4055C115.78 34.5215 115.886 34.5954 116.012 34.6164L118.227 34.9434C118.543 34.9856 118.659 35.3758 118.438 35.5972L116.835 37.1581C116.74 37.2424 116.708 37.369 116.729 37.4955L117.109 39.6997C117.162 40.0161 116.835 40.2481 116.561 40.1004L114.578 39.0564C114.462 38.9931 114.335 38.9931 114.219 39.0564L112.237 40.1004C111.963 40.2481 111.636 40.0055 111.688 39.6997L112.068 37.4955C112.089 37.369 112.047 37.2424 111.963 37.1581L110.36 35.5972C110.138 35.3758 110.254 34.9961 110.57 34.9434L112.785 34.6164C112.912 34.5954 113.017 34.5215 113.07 34.4055L114.061 32.4018C114.188 32.1276 114.589 32.1276 114.736 32.4018Z" fill="#FE6C61"/>
<path d="M114.736 50.0032L115.728 52.007C115.78 52.123 115.886 52.1968 116.012 52.2179L118.227 52.5448C118.543 52.587 118.659 52.9772 118.438 53.1987L116.835 54.7595C116.74 54.8439 116.708 54.9704 116.729 55.097L117.109 57.3011C117.162 57.6175 116.835 57.8495 116.561 57.7019L114.578 56.6578C114.462 56.5945 114.335 56.5945 114.219 56.6578L112.237 57.7019C111.963 57.8495 111.636 57.607 111.688 57.3011L112.068 55.097C112.089 54.9704 112.047 54.8439 111.963 54.7595L110.36 53.1987C110.138 52.9772 110.254 52.5976 110.57 52.5448L112.785 52.2179C112.912 52.1968 113.017 52.123 113.07 52.007L114.061 50.0032C114.188 49.7185 114.589 49.7185 114.736 50.0032Z" fill="#E8E8E8"/>
<path d="M114.736 67.5942L115.728 69.5979C115.78 69.7139 115.886 69.7878 116.012 69.8089L118.227 70.1358C118.543 70.178 118.659 70.5682 118.438 70.7897L116.835 72.3505C116.74 72.4348 116.708 72.5614 116.729 72.688L117.109 74.8921C117.162 75.2085 116.835 75.4405 116.561 75.2929L114.578 74.2488C114.462 74.1855 114.335 74.1855 114.219 74.2488L112.237 75.2929C111.963 75.4405 111.636 75.1979 111.688 74.8921L112.068 72.688C112.089 72.5614 112.047 72.4348 111.963 72.3505L110.36 70.7897C110.138 70.5682 110.254 70.1885 110.57 70.1358L112.785 69.8089C112.912 69.7878 113.017 69.7139 113.07 69.5979L114.061 67.5942C114.188 67.3094 114.589 67.3094 114.736 67.5942Z" fill="#E8E8E8"/>
<path d="M114.736 83.3711L115.728 85.3749C115.78 85.4909 115.886 85.5647 116.012 85.5858L118.227 85.9127C118.543 85.9549 118.659 86.3451 118.438 86.5666L116.835 88.1274C116.74 88.2118 116.708 88.3383 116.729 88.4649L117.109 90.669C117.162 90.9854 116.835 91.2174 116.561 91.0698L114.578 90.0257C114.462 89.9625 114.335 89.9625 114.219 90.0257L112.237 91.0698C111.963 91.2174 111.636 90.9749 111.688 90.669L112.068 88.4649C112.089 88.3383 112.047 88.2118 111.963 88.1274L110.36 86.5666C110.138 86.3451 110.254 85.9655 110.57 85.9127L112.785 85.5858C112.912 85.5647 113.017 85.4909 113.07 85.3749L114.061 83.3711C114.188 83.0864 114.589 83.0864 114.736 83.3711Z" fill="#E8E8E8"/>
<path d="M114.736 101.627L115.728 103.63C115.78 103.746 115.886 103.82 116.012 103.841L118.227 104.168C118.543 104.21 118.659 104.601 118.438 104.822L116.835 106.383C116.74 106.467 116.708 106.594 116.729 106.72L117.109 108.924C117.162 109.241 116.835 109.473 116.561 109.325L114.578 108.281C114.462 108.218 114.335 108.218 114.219 108.281L112.237 109.325C111.963 109.473 111.636 109.23 111.688 108.924L112.068 106.72C112.089 106.594 112.047 106.467 111.963 106.383L110.36 104.822C110.138 104.601 110.254 104.221 110.57 104.168L112.785 103.841C112.912 103.82 113.017 103.746 113.07 103.63L114.061 101.627C114.188 101.342 114.589 101.342 114.736 101.627Z" fill="#E8E8E8"/>
<path d="M114.736 118.659L115.728 120.662C115.78 120.778 115.886 120.852 116.012 120.873L118.227 121.2C118.543 121.242 118.659 121.633 118.438 121.854L116.835 123.415C116.74 123.499 116.708 123.626 116.729 123.752L117.109 125.956C117.162 126.273 116.835 126.505 116.561 126.357L114.578 125.313C114.462 125.25 114.335 125.25 114.219 125.313L112.237 126.357C111.963 126.505 111.636 126.262 111.688 125.956L112.068 123.752C112.089 123.626 112.047 123.499 111.963 123.415L110.36 121.854C110.138 121.633 110.254 121.253 110.57 121.2L112.785 120.873C112.912 120.852 113.017 120.778 113.07 120.662L114.061 118.659C114.188 118.374 114.589 118.374 114.736 118.659Z" fill="#E8E8E8"/>
<path d="M168.142 45.363H130.165C129.311 45.363 128.615 44.667 128.615 43.8127V28.9532C128.615 28.099 129.311 27.403 130.165 27.403H168.142C168.996 27.403 169.692 28.099 169.692 28.9532V43.8127C169.682 44.667 168.996 45.363 168.142 45.363Z" fill="white"/>
<path d="M166.855 29.6914H131.452V31.7795H166.855V29.6914Z" fill="#E8E8E8"/>
<path d="M166.855 33.4565H131.452V35.5446H166.855V33.4565Z" fill="#E8E8E8"/>
<path d="M166.855 37.2214H131.452V39.3095H166.855V37.2214Z" fill="#E8E8E8"/>
<path d="M149.148 40.9758H131.452V43.0639H149.148V40.9758Z" fill="#E8E8E8"/>
<path d="M168.142 66.7084H130.165C129.311 66.7084 128.615 66.0124 128.615 65.1581V50.2986C128.615 49.4444 129.311 48.7484 130.165 48.7484H168.142C168.996 48.7484 169.692 49.4444 169.692 50.2986V65.1581C169.682 66.0124 168.996 66.7084 168.142 66.7084Z" fill="white"/>
<path d="M166.855 51.0367H131.452V53.1248H166.855V51.0367Z" fill="#E8E8E8"/>
<path d="M166.855 54.8017H131.452V56.8899H166.855V54.8017Z" fill="#E8E8E8"/>
<path d="M166.855 58.5667H131.452V60.6548H166.855V58.5667Z" fill="#E8E8E8"/>
<path d="M149.148 62.3317H131.452V64.4198H149.148V62.3317Z" fill="#E8E8E8"/>
<path d="M168.142 88.0538H130.165C129.311 88.0538 128.615 87.3577 128.615 86.5035V71.644C128.615 70.7897 129.311 70.0937 130.165 70.0937H168.142C168.996 70.0937 169.692 70.7897 169.692 71.644V86.5035C169.682 87.3577 168.996 88.0538 168.142 88.0538Z" fill="white"/>
<path d="M166.855 72.3928H131.452V74.4809H166.855V72.3928Z" fill="#E8E8E8"/>
<path d="M166.855 76.1472H131.452V78.2354H166.855V76.1472Z" fill="#E8E8E8"/>
<path d="M166.855 79.9122H131.452V82.0003H166.855V79.9122Z" fill="#E8E8E8"/>
<path d="M149.148 83.6772H131.452V85.7653H149.148V83.6772Z" fill="#E8E8E8"/>
<path d="M168.142 109.399H130.165C129.311 109.399 128.615 108.703 128.615 107.849V92.9999C128.615 92.1457 129.311 91.4496 130.165 91.4496H168.142C168.996 91.4496 169.692 92.1457 169.692 92.9999V107.859C169.682 108.714 168.996 109.399 168.142 109.399Z" fill="white"/>
<path d="M166.855 93.7381H131.452V95.8263H166.855V93.7381Z" fill="#E8E8E8"/>
<path d="M166.855 97.503H131.452V99.5911H166.855V97.503Z" fill="#E8E8E8"/>
<path d="M166.855 101.257H131.452V103.346H166.855V101.257Z" fill="#E8E8E8"/>
<path d="M149.148 105.022H131.452V107.111H149.148V105.022Z" fill="#E8E8E8"/>
<path d="M168.142 130.755H130.165C129.311 130.755 128.615 130.059 128.615 129.205V114.345C128.615 113.491 129.311 112.795 130.165 112.795H168.142C168.996 112.795 169.692 113.491 169.692 114.345V129.205C169.682 130.059 168.996 130.755 168.142 130.755Z" fill="white"/>
<path d="M166.855 115.083H131.452V117.172H166.855V115.083Z" fill="#E8E8E8"/>
<path d="M166.855 118.849H131.452V120.937H166.855V118.849Z" fill="#E8E8E8"/>
<path d="M166.855 122.614H131.452V124.702H166.855V122.614Z" fill="#E8E8E8"/>
<path d="M149.148 126.368H131.452V128.456H149.148V126.368Z" fill="#E8E8E8"/>
<path d="M217.519 157.69L217.804 163.628L216.338 164.334C216.338 164.334 219.259 167.466 224.416 166.032L224.596 157.69H217.519Z" fill="#FFD1C1"/>
<path d="M216.928 161.835C216.928 161.835 221.738 161.497 225.281 159.694V157.205L216.338 157.11L216.928 161.835Z" fill="#FFB2A0"/>
<path d="M224.585 165.853V170.208H206.941C206.941 168.879 207.753 167.677 208.987 167.192L216.274 164.302C216.285 164.302 219.713 167.319 224.585 165.853Z" fill="#4F5285"/>
<path d="M215.41 164.65L216 165.853C216.127 166.116 216.011 166.443 215.747 166.559C215.505 166.665 215.209 166.57 215.083 166.327L214.397 165.051L215.41 164.65Z" fill="#373660"/>
<path d="M213.627 165.357L214.218 166.559C214.345 166.823 214.229 167.15 213.965 167.266C213.722 167.371 213.427 167.276 213.3 167.034L212.615 165.758L213.627 165.357Z" fill="#373660"/>
<path d="M211.613 166.158L212.204 167.361C212.33 167.624 212.214 167.951 211.95 168.067C211.708 168.173 211.413 168.078 211.286 167.835L210.601 166.559L211.613 166.158Z" fill="#373660"/>
<path d="M224.595 170.208H206.952V171.516H224.595V170.208Z" fill="#373660"/>
<path d="M260.579 143.01L266.042 145.362L266.031 146.996C266.031 146.996 270.133 145.741 271.104 140.479L263.679 136.672L260.579 143.01Z" fill="#FFD1C1"/>
<path d="M266.653 137.315C266.653 137.315 266.801 145.045 265.367 145.899L261.602 144.613L263.363 136.165L266.653 137.315Z" fill="#FFB2A0"/>
<path d="M271.009 140.236L274.921 142.145L267.201 158.006C266.01 157.426 265.282 156.171 265.388 154.842L265.989 147.028C265.978 147.017 270.197 145.256 271.009 140.236Z" fill="#4F5285"/>
<path d="M265.904 147.966L267.244 147.956C267.539 147.956 267.771 148.198 267.761 148.494C267.75 148.768 267.529 148.979 267.265 148.989L265.82 149.053L265.904 147.966Z" fill="#373660"/>
<path d="M265.767 149.875L267.107 149.865C267.402 149.865 267.634 150.107 267.623 150.403C267.613 150.677 267.391 150.888 267.128 150.898L265.683 150.961L265.767 149.875Z" fill="#373660"/>
<path d="M265.599 152.027L266.938 152.016C267.233 152.016 267.465 152.259 267.455 152.554C267.444 152.828 267.223 153.039 266.959 153.05L265.514 153.113L265.599 152.027Z" fill="#373660"/>
<path d="M267.185 158.001L268.36 158.573L276.085 142.71L274.909 142.137L267.185 158.001Z" fill="#373660"/>
<path d="M218.457 60.2225L203.313 44.4349L199.685 47.6093L212.657 66.2233L218.457 60.2225Z" fill="#FFD1C1"/>
<path d="M206.646 59.9376C206.646 59.9376 213.364 60.1802 218.204 58.2397L219.755 60.0537L212.098 67.5625L206.646 59.9376Z" fill="#FFB2A0"/>
<path d="M201.647 37.7595L192.008 43.718L179.605 37.0845C179.416 37.2849 179.342 37.6013 179.416 37.9598L181.789 48.7802C181.926 49.4129 182.506 49.9402 183.086 49.9613L203.788 50.6046C204.368 50.6257 204.726 50.1195 204.579 49.4868L202.206 38.6664C202.143 38.2973 201.921 37.9704 201.647 37.7595Z" fill="#E8E8E8"/>
<path d="M204.589 49.4762C204.589 49.4762 200.339 46.017 200.16 45.7745C199.981 45.5319 199.464 44.6566 199.928 43.8762C200.392 43.0958 199.928 43.8762 199.928 43.8762L204.621 46.5443L204.589 49.4762Z" fill="#D1D1D1"/>
<path d="M178.646 37.0739C178.646 37.0739 187.272 49.455 194.201 51.2795H180.555L178.646 37.0739Z" fill="#D1D1D1"/>
<path d="M201.647 37.7594C201.425 37.5907 201.172 37.4852 200.919 37.4746L180.217 36.8313C179.964 36.8208 179.753 36.9157 179.605 37.0739L192.008 43.7074L201.647 37.7594Z" fill="#FE6C61"/>
<path d="M223.857 41.5241C226.378 41.5241 228.423 44.7091 228.423 48.6217V52.0703C228.423 53.4413 228.55 54.8123 228.793 56.1622L229.678 61.0239L223.857 61.0028V55.7192C221.336 55.7192 219.291 52.5343 219.291 48.6217C219.291 44.7091 221.336 41.5241 223.857 41.5241Z" fill="#FFD1C1"/>
<path d="M224.258 43.8443C224.258 43.8443 223.193 51.1211 218.605 52.1758C218.605 52.1758 217.392 46.3754 218.805 44.5087C220.219 42.6421 224.258 43.8443 224.258 43.8443Z" fill="#FFB2A0"/>
<path d="M239.075 90.4056H214.271L215.947 86.0078C216.549 84.4259 216.696 82.7069 216.369 81.0406L215.494 76.569L210.242 81.0933L204.505 73.1943L216.728 60.56C219.101 58.7566 222.011 57.7758 224.996 57.7758H230.164C230.237 57.7758 230.322 57.7758 230.396 57.7758C234.688 57.9024 237.926 61.7412 237.483 66.0124L236.808 72.5404C236.344 77.0331 236.702 81.5784 237.873 85.934L239.075 90.4056Z" fill="#FFC967"/>
<path d="M215.505 76.5691L219.301 73.1416C219.301 73.1416 218.742 81.7999 221.347 84.5314C223.952 87.2628 229.689 91.5973 229.689 91.5973L211.191 91.4813L214.84 83.3924L215.505 76.5691Z" fill="#FFA648"/>
<path d="M220.598 57.2485C220.598 57.2485 219.628 65.8225 227.379 68.8703C235.12 71.9182 238.653 71.1483 238.653 71.1483L239.086 65.6854C239.086 65.6854 230.427 66.0967 228.487 63.9558C226.546 61.815 225.101 56.4892 225.101 56.4892L220.598 57.2485Z" fill="#FFA648"/>
<path d="M222.412 40.7965C221.157 42.3889 221.01 45.2258 221.906 46.8183C222.317 47.5354 222.887 48.1577 223.277 48.8853C224.121 50.4567 224.057 52.355 223.773 54.1268C223.499 55.888 223.035 57.6597 223.182 59.4315C223.435 62.4477 225.46 65.1369 228.054 66.7189C231.208 68.6382 236.28 70.3467 239.666 68.0266C242.06 66.3919 243.42 63.4917 243.694 60.6548C243.969 57.839 242.819 55.6349 240.573 53.9791C239.149 52.9351 236.998 52.4078 236.238 50.6993C235.764 49.6341 236.006 48.4002 235.827 47.2507C235.584 45.6582 234.498 44.224 233.022 43.5806C232.241 43.2326 231.387 43.0955 230.607 42.7686C229.647 42.3573 228.835 41.6507 228.002 41.0179C227.169 40.3852 226.251 39.784 225.207 39.6469C223.994 39.4887 223.056 39.9739 222.412 40.7965Z" fill="#373660"/>
<path d="M239.602 122.434L237.293 90.4055H233.855H221.094H215.61C215.61 90.4055 211.276 111.645 212.246 121.96C212.446 124.079 215.81 158.892 215.81 158.892H226.357L225.102 126.452C225.017 124.185 225.27 121.928 225.871 119.745L226.051 119.091L227.211 125.798C227.474 127.306 228.033 128.751 228.856 130.038C230.269 132.253 232.389 133.919 234.878 134.773L262.952 144.349L265.915 136.798L239.602 122.434Z" fill="#277EF1"/>
<path d="M226.051 119.376C226.019 119.376 225.998 119.376 225.966 119.365C225.819 119.323 225.734 119.165 225.776 119.007L232.273 98.0092C232.315 97.8615 232.473 97.7771 232.631 97.8193C232.779 97.8615 232.863 98.0197 232.821 98.1779L226.325 119.175C226.283 119.291 226.167 119.376 226.051 119.376Z" fill="#4F5285"/>
<path d="M222.476 42.41C222.602 43.9286 221.959 45.4895 220.799 46.4703C219.639 47.4511 217.983 47.8307 216.517 47.4511C216.633 46.5757 216.391 45.6793 216.728 44.8567C217.097 43.9708 218.015 43.4541 218.932 43.1482C219.08 43.0955 219.238 43.0428 219.322 42.9268C219.386 42.8424 219.396 42.7264 219.417 42.6209C219.481 42.1253 219.512 41.6085 219.744 41.1761C220.061 40.6066 220.693 40.2586 221.337 40.132C221.843 40.0371 222.433 40.0688 222.771 40.459C223.035 40.7543 223.087 41.1867 222.982 41.5558C222.866 41.9354 222.75 42.1358 222.476 42.41Z" fill="#373660"/>
<path d="M184.066 32.1803C184.108 31.3471 184.277 30.8409 184.583 30.7671C185.49 30.5351 187.241 34.3844 188.506 39.3727C189.772 44.3505 190.067 48.5795 189.16 48.801C188.865 48.8748 188.474 48.5057 188.032 47.7991C188.126 46.1117 187.715 43.1166 186.861 39.784C186.007 36.4514 184.952 33.6145 184.066 32.1803Z" fill="#4F5285"/>
<path d="M184.119 31.6319C185.184 33.024 186.629 36.2933 187.473 39.6364C188.316 42.9795 188.548 46.4597 188.274 48.1893C187.209 46.7972 186.07 43.549 185.216 40.2164C184.362 36.8838 183.845 33.3614 184.119 31.6319Z" fill="#E8E8E8"/>
<path d="M186.988 36.5463C186.924 36.8415 185.237 41.8193 185.237 41.8193L184.151 38.3496L185.891 34.2261L186.988 36.5463Z" fill="url(#paint0_linear_2_2751)"/>
<path d="M187.62 39.3094L186.123 44.2766L186.85 46.5651L188.105 42.0935L187.62 39.3094Z" fill="url(#paint1_linear_2_2751)"/>
<path d="M182.938 31.189C182.031 31.421 182.326 35.6394 183.592 40.6172C184.857 45.595 186.619 49.4443 187.515 49.2228L189.15 48.8115C188.854 48.8854 188.464 48.5162 188.021 47.8097C187.135 46.3754 186.07 43.549 185.216 40.2059C184.372 36.8733 183.961 33.8677 184.045 32.1908C184.087 31.3577 184.256 30.8515 184.562 30.7776L182.938 31.189Z" fill="#373660"/>
<path d="M187.61 50.3724L188.844 55.2342C188.896 55.4451 189.107 55.5716 189.318 55.5189L190.278 55.2764C190.489 55.2236 190.616 55.0127 190.563 54.8018L189.329 49.94C189.276 49.7291 189.065 49.6025 188.854 49.6553L187.895 49.8978C187.684 49.9506 187.557 50.1615 187.61 50.3724Z" fill="#373660"/>
<path d="M187.628 49.2012L187.812 49.9269L188.916 49.6465L188.732 48.9208L187.628 49.2012Z" fill="#4F5285"/>
<path d="M192.799 56.4259C192.799 56.4259 190.668 51.1845 190.331 50.7943C189.993 50.4041 185.901 50.6678 185.543 52.1653C185.153 53.8421 184.72 55.9092 188.38 58.6617L197.196 79.4903C197.681 80.545 198.42 81.473 199.327 82.1901C201.763 84.099 205.127 84.2783 207.753 82.6436L210.221 81.1039L192.799 56.4259Z" fill="#FFD1C1"/>
<path d="M204.515 72.1609C204.515 72.1609 206.709 81.8528 203.724 84.5104C203.724 84.5104 209.535 84.1729 211.613 80.8509L205.58 71.2117L204.515 72.1609Z" fill="#FFB2A0"/>
<path d="M203.535 44.6776C203.535 44.6776 200.192 43.623 199.928 43.8866C199.759 44.0554 199.928 45.0467 200.413 45.2998C200.814 45.5107 204.199 47.7149 204.199 47.7149C204.199 47.7149 204.104 45.458 203.535 44.6776Z" fill="#FFD1C1"/>
<path d="M208.396 0.0569491C205.623 0.0253107 202.849 0.0253107 200.075 0.0991337C197.302 0.172957 194.528 0.29951 191.765 0.499887C186.239 0.90064 180.723 1.63887 175.313 2.83058C172.603 3.43171 169.924 4.1383 167.298 5.00309C164.672 5.86787 162.088 6.89084 159.589 8.07201C157.089 9.26372 154.674 10.6242 152.386 12.1745C150.097 13.7247 147.935 15.4649 145.963 17.4053L145.773 17.5846C145.71 17.6479 145.657 17.7112 145.594 17.7745L145.235 18.1541L144.518 18.9029L144.16 19.2826L143.822 19.6728L143.147 20.4532L142.81 20.8434L142.641 21.0438L142.483 21.2441L141.85 22.0667L141.217 22.8893L140.616 23.733C139.045 26.0004 137.695 28.4261 136.556 30.9466C134.289 35.9876 132.854 41.3978 132.211 46.8818C131.568 52.3763 131.705 57.9658 132.738 63.397C132.991 64.7575 133.318 66.0968 133.687 67.4257C134.067 68.7545 134.531 70.0516 135.048 71.3277C135.565 72.6038 136.176 73.8377 136.862 75.04C137.537 76.2422 138.296 77.3918 139.129 78.4885C140.795 80.6821 142.757 82.6437 144.951 84.3206C147.134 85.9974 149.549 87.3789 152.069 88.4968C153.335 89.0558 154.621 89.5514 155.929 89.9838C157.237 90.4162 158.576 90.7748 159.916 91.0912C161.266 91.4076 162.615 91.6712 163.986 91.8821C165.357 92.0931 166.728 92.2513 168.11 92.3673C173.626 92.8313 179.183 92.5993 184.678 91.8821C187.42 91.5236 190.151 91.0385 192.851 90.4268C194.201 90.1209 195.551 89.794 196.88 89.4354L197.882 89.1612L198.873 88.8659L199.864 88.5706L200.856 88.2437C206.118 86.5247 211.191 84.2467 216.211 81.895C218.721 80.7243 221.231 79.5326 223.762 78.3831C225.027 77.803 226.293 77.2441 227.569 76.6957C228.202 76.411 228.856 76.1684 229.499 75.9047C229.826 75.7782 230.142 75.6411 230.469 75.5145L231.45 75.1665C234.065 74.2279 236.734 73.4475 239.455 72.8464C242.165 72.2452 244.917 71.8339 247.681 71.5597C250.444 71.2855 253.217 71.159 255.991 71.1273C258.765 71.0957 261.538 71.1695 264.312 71.2855C261.538 71.1906 258.765 71.1484 255.991 71.2012C253.217 71.2539 250.444 71.391 247.691 71.6863C244.939 71.9816 242.186 72.4034 239.486 73.0257C236.786 73.6373 234.118 74.4283 231.524 75.388L230.554 75.7466C230.227 75.8731 229.91 76.0102 229.594 76.1368C228.951 76.4004 228.307 76.6535 227.675 76.9383C226.398 77.4867 225.133 78.0562 223.878 78.6362C221.357 79.7963 218.858 80.9985 216.348 82.1797C211.328 84.5526 206.266 86.8516 200.982 88.6023L199.991 88.9292L198.989 89.2351L197.987 89.5409L196.985 89.8256C195.646 90.1948 194.296 90.5322 192.936 90.8381C190.225 91.4497 187.483 91.9349 184.731 92.304C179.215 93.0317 173.626 93.2637 168.078 92.8102C166.686 92.6942 165.305 92.536 163.934 92.3251C162.552 92.1142 161.192 91.8505 159.831 91.5341C158.471 91.2177 157.131 90.8486 155.803 90.4162C154.474 89.9838 153.177 89.4882 151.901 88.9187C149.348 87.7902 146.902 86.3981 144.687 84.7002C142.472 83.0023 140.469 81.0091 138.781 78.7838C137.937 77.6659 137.178 76.4953 136.482 75.2825C135.797 74.0697 135.174 72.8147 134.658 71.5175C134.13 70.2204 133.666 68.9021 133.287 67.5628C132.907 66.2234 132.591 64.8629 132.327 63.4919C131.293 58.008 131.167 52.3763 131.821 46.8502C132.485 41.324 133.93 35.8822 136.218 30.7989C137.368 28.2573 138.728 25.8212 140.321 23.5326L140.922 22.6784L141.565 21.8558L142.209 21.0332L142.367 20.8223L142.536 20.6219L142.873 20.2317L143.559 19.4407L143.896 19.0505L144.255 18.6709L144.982 17.9221L145.341 17.5424C145.404 17.4792 145.457 17.4159 145.52 17.3526L145.71 17.1733C147.703 15.2223 149.886 13.4822 152.196 11.9214C154.505 10.3711 156.942 9.01062 159.462 7.8189C161.983 6.63774 164.577 5.62531 167.214 4.76053C169.861 3.89574 172.55 3.1997 175.26 2.60911C180.692 1.43849 186.218 0.742448 191.754 0.373333C194.528 0.183503 197.302 0.0674953 200.075 0.0253107C202.849 -0.0168738 205.623 -0.00632768 208.396 0.0569491Z" fill="#373660"/>
<path d="M267.887 71.4014L288.283 70.5366L269.089 77.6236L267.887 71.4014Z" fill="#277EF1"/>
<path d="M270.945 71.2643L269.289 68.0688L288.283 70.5366L270.945 71.2643Z" fill="#1649FF"/>
<path d="M269.289 68.0688L273.191 63.9242L288.283 70.5366L269.289 68.0688Z" fill="#277EF1"/>
<path d="M252.605 127.549H250.264V168.51H252.605V127.549Z" fill="#1649FF"/>
<path d="M268.045 171.516H235.932L245.107 167.097C249.125 165.167 253.787 165.104 257.858 166.929L268.045 171.516Z" fill="#1649FF"/>
<path d="M236.976 126.684C242.091 126.684 246.911 124.238 249.927 120.104L270.893 91.397C272.464 89.2456 274.974 87.9695 277.642 87.9695L267.064 122.635C266.01 126.094 262.814 128.456 259.197 128.456H248.609H243.831H233.433C232.948 128.456 232.547 128.055 232.547 127.57C232.547 127.085 232.948 126.684 233.433 126.684H236.976Z" fill="#1649FF"/>
<path d="M118.733 119.239H22.1304C22.0355 119.239 21.9617 119.165 21.9617 119.07V114.493C21.9617 114.398 22.0355 114.324 22.1304 114.324H118.733C118.828 114.324 118.902 114.398 118.902 114.493V119.07C118.902 119.154 118.828 119.239 118.733 119.239Z" fill="#1649FF"/>
<path d="M27.9623 171.917H25.7266L41.4192 119.197H43.6655L27.9623 171.917Z" fill="#1649FF"/>
<path d="M108.682 171.917H110.929L95.2255 119.197H92.9897L108.682 171.917Z" fill="#1649FF"/>
<path d="M95.6265 104.548H44.288C43.2439 104.548 42.3896 103.704 42.3896 102.65V76.3266C42.3896 75.2826 43.2333 74.4283 44.288 74.4283H95.6265C96.6706 74.4283 97.5248 75.272 97.5248 76.3266V102.66C97.5248 103.704 96.6811 104.548 95.6265 104.548Z" fill="#373660"/>
<path d="M75.5783 104.548H64.3467V114.314H75.5783V104.548Z" fill="#4F5285"/>
<path d="M95.1416 77.0755H44.7627V100.425H95.1416V77.0755Z" fill="#4F5285"/>
<path opacity="0.08" d="M54.6656 76.1475L48.2324 102.312H60.4659L67.7322 76.1475H54.6656Z" fill="#F7F7F7"/>
<path opacity="0.08" d="M79.913 75.6729L73.0264 101.827H85.7134L92.9902 75.6729H79.913Z" fill="#F7F7F7"/>
<path opacity="0.08" d="M72.2038 76.2002L65.1484 101.311H68.365L75.7051 76.2002H72.2038Z" fill="#F7F7F7"/>
<path d="M80.1237 112.405H59.7908V114.314H80.1237V112.405Z" fill="#373660"/>
<path d="M94.9936 114.314H87.4636V113.734C87.4636 111.656 89.151 109.969 91.2286 109.969C93.3062 109.969 94.9936 111.656 94.9936 113.734V114.314Z" fill="#373660"/>
<path d="M198.399 147.017H179.025V171.906H198.399V147.017Z" fill="#D1D1D1"/>
<path d="M189.898 171.906H187.272V151.795C187.272 151.088 187.842 150.519 188.549 150.519H188.612C189.318 150.519 189.888 151.088 189.888 151.795V171.906H189.898Z" fill="#B5B5B5"/>
<path d="M185.775 171.906H183.149V151.795C183.149 151.088 183.718 150.519 184.425 150.519H184.488C185.195 150.519 185.764 151.088 185.764 151.795V171.906H185.775Z" fill="#B5B5B5"/>
<path d="M181.651 171.906H179.025V151.795C179.025 151.088 179.595 150.519 180.301 150.519H180.365C181.071 150.519 181.641 151.088 181.641 151.795V171.906H181.651Z" fill="#B5B5B5"/>
<path d="M198.283 171.906H195.657V151.795C195.657 151.088 196.226 150.519 196.933 150.519H196.996C197.703 150.519 198.272 151.088 198.272 151.795V171.906H198.283Z" fill="#B5B5B5"/>
<path d="M194.159 171.906H191.533V151.795C191.533 151.088 192.103 150.519 192.809 150.519H192.873C193.579 150.519 194.149 151.088 194.149 151.795V171.906H194.159Z" fill="#B5B5B5"/>
<path d="M185.712 138.897L172.951 155.834C172.856 155.96 172.666 155.992 172.539 155.887L170.905 154.653C170.778 154.558 170.747 154.368 170.852 154.241L183.623 137.304C183.718 137.178 183.908 137.146 184.035 137.252L185.669 138.485C185.785 138.58 185.817 138.77 185.712 138.897Z" fill="#B5B5B5"/>
<path d="M182.833 138.349L171.622 153.219C170.799 152.596 170.631 151.426 171.253 150.603L180.207 138.718C180.839 137.895 182.01 137.726 182.833 138.349Z" fill="#D1D1D1"/>
<path d="M176.652 143.453L174.723 146.005L174.248 145.646C174.09 145.52 174.048 145.288 174.174 145.13L175.661 143.168C175.788 143.01 176.02 142.968 176.178 143.094L176.652 143.453Z" fill="#B5B5B5"/>
<path d="M195.973 147.017H184.615L188.411 135.765C188.591 135.216 189.181 134.91 189.73 135.09L197.882 137.726C198.43 137.905 198.736 138.496 198.557 139.044L195.973 147.017Z" fill="#E8E8E8"/>
<path opacity="0.44" d="M196.975 145.224C196.606 145.077 187.051 147.017 187.051 147.017H195.983L196.975 145.224Z" fill="#B5B5B5"/>
<path d="M188.939 135.153L191.343 144.781L189.065 147.017H184.615L188.411 135.765C188.401 135.765 188.538 135.332 188.939 135.153Z" fill="#FE6D60"/>
<path d="M299.599 172.317H3.18957C2.9681 172.317 2.78882 172.138 2.78882 171.917C2.78882 171.695 2.9681 171.516 3.18957 171.516H299.599C299.821 171.516 300 171.695 300 171.917C300 172.138 299.821 172.317 299.599 172.317Z" fill="#373660"/>
<defs>
<linearGradient id="paint0_linear_2_2751" x1="184.313" y1="39.5214" x2="187.596" y2="35.5626" gradientUnits="userSpaceOnUse">
<stop stop-color="white"/>
<stop offset="1" stop-color="#E8E8E8"/>
</linearGradient>
<linearGradient id="paint1_linear_2_2751" x1="186.023" y1="44.3986" x2="189.21" y2="40.5568" gradientUnits="userSpaceOnUse">
<stop stop-color="white"/>
<stop offset="1" stop-color="#E8E8E8"/>
</linearGradient>
</defs>
</svg>
