<svg width="12" height="14" viewBox="0 0 12 14" fill="none" xmlns="http://www.w3.org/2000/svg">
<path d="M5.67177 13.1111C5.66001 13.1881 5.65354 13.2658 5.65239 13.3437C5.65239 13.7377 5.92371 14 6.29838 14C6.64205 14 6.93403 13.7778 7.01543 13.3837L7.73118 9.89152H9.28672C9.83064 9.89152 10.0839 9.5892 10.0839 9.18481C10.0839 8.78171 9.84098 8.50006 9.28672 8.50006H8.01412L8.68078 5.23911H10.3151C10.8707 5.23911 11.1136 4.94584 11.1136 4.5324C11.1136 4.12801 10.8707 3.85541 10.3151 3.85541H8.96373L9.57871 0.878697C9.59108 0.808712 9.598 0.73787 9.59938 0.666813C9.60042 0.578977 9.58388 0.491821 9.55075 0.410468C9.51761 0.329116 9.46855 0.25521 9.40644 0.193097C9.34432 0.130983 9.27042 0.0819167 9.18906 0.048782C9.10771 0.0156473 9.02055 -0.000886426 8.93272 0.000153155C8.77008 -0.0029501 8.61148 0.0508723 8.48432 0.152315C8.35716 0.253758 8.26945 0.396443 8.23634 0.555703L7.56064 3.85541H4.67308L5.28935 0.878697C5.29968 0.827018 5.30873 0.726243 5.30873 0.666813C5.30944 0.578301 5.29238 0.490548 5.25856 0.408749C5.22474 0.326951 5.17485 0.252771 5.11184 0.190606C5.04883 0.12844 4.97399 0.0795519 4.89174 0.0468377C4.80949 0.0141235 4.72152 -0.00175138 4.63302 0.000153155C4.47209 -0.000782757 4.3158 0.0540521 4.19073 0.155334C4.06566 0.256615 3.97953 0.39809 3.94699 0.555703L3.2687 3.85541H1.82685C1.2713 3.85541 1.0297 4.13964 1.0297 4.54274C1.0297 4.94584 1.2713 5.23911 1.82685 5.23911H2.99738L2.33202 8.49877H0.786813C0.242892 8.49877 0 8.78171 0 9.18481C0 9.5892 0.242892 9.89152 0.788105 9.89152H2.04907L1.38241 13.1111C1.37208 13.1628 1.36303 13.2726 1.36303 13.3437C1.36303 13.7377 1.63435 14 2.00902 14C2.3514 14 2.64467 13.7778 2.72478 13.3837L3.44182 9.89152H6.33843L5.67306 13.1111H5.67177ZM4.3798 5.21844H7.30741L6.64205 8.52978H3.69376L4.38109 5.21844H4.3798Z" fill="#FAFAFA"/>
</svg>
