<svg width="17" height="18" viewBox="0 0 17 18" fill="none" xmlns="http://www.w3.org/2000/svg">
<path d="M16.3386 5.52054C16.2194 5.40052 16.0777 5.30534 15.9214 5.24051C15.7652 5.17568 15.5977 5.14249 15.4286 5.14286H12.8571V4.5C12.8571 3.30653 12.383 2.16193 11.5391 1.31802C10.6952 0.474106 9.55062 0 8.35714 0C7.16367 0 6.01908 0.474106 5.17516 1.31802C4.33125 2.16193 3.85714 3.30653 3.85714 4.5V5.14286H1.28571C0.944722 5.14286 0.617695 5.27832 0.376577 5.51943C0.135459 5.76055 0 6.08758 0 6.42857V15.1071C0 16.6741 1.32589 18 2.89286 18H13.8214C14.5794 18.0002 15.3074 17.7039 15.8496 17.1743C16.1225 16.914 16.3399 16.601 16.4885 16.2544C16.6371 15.9077 16.7139 15.5345 16.7143 15.1574V6.42857C16.7148 6.2599 16.6819 6.09279 16.6174 5.93693C16.5529 5.78107 16.4582 5.63954 16.3386 5.52054ZM5.14286 4.5C5.14286 3.64752 5.4815 2.82995 6.0843 2.22716C6.6871 1.62436 7.50466 1.28571 8.35714 1.28571C9.20963 1.28571 10.0272 1.62436 10.63 2.22716C11.2328 2.82995 11.5714 3.64752 11.5714 4.5V5.14286H5.14286V4.5Z" fill="white"/>
</svg>
