<svg width="316" height="234" viewBox="0 0 316 234" fill="none" xmlns="http://www.w3.org/2000/svg">
<ellipse cx="158" cy="205.5" rx="158" ry="28.5" fill="#FAFAFA"/>
<path d="M189.243 156.022H134.863C134.863 156.022 137.137 190.678 126.36 190.678C129.82 190.678 194.335 190.678 197.796 190.678C186.969 190.678 189.243 156.022 189.243 156.022Z" fill="#FFDEE1"/>
<path opacity="0.55" d="M134.22 176.836L189.046 165.712C188.947 160.225 189.243 155.973 189.243 155.973H134.863C134.863 156.023 135.555 167.195 134.22 176.836Z" fill="#FF796D"/>
<path d="M262.064 166.454H61.9931C56.9505 166.454 52.8967 162.4 52.8967 157.357V32.3317C52.8967 27.2892 56.9505 23.2354 61.9931 23.2354H262.064C267.106 23.2354 271.16 27.2892 271.16 32.3317V157.357C271.209 162.4 267.106 166.454 262.064 166.454Z" fill="#FFDEE1"/>
<path d="M257.763 161.361H66.3435C62.3391 161.361 59.0269 158.099 59.0269 154.045V35.5943C59.0269 31.59 62.2897 28.2777 66.3435 28.2777H257.763C261.767 28.2777 265.079 31.5405 265.079 35.5943V154.094C265.079 158.099 261.816 161.361 257.763 161.361Z" fill="white" stroke="#FF796D" stroke-width="2" stroke-miterlimit="10"/>
<path d="M59.0269 45.0865H265.079" stroke="#FF796D" stroke-width="2" stroke-miterlimit="10"/>
<path d="M240.311 39.8463H98.3784C96.4504 39.8463 94.8684 38.2643 94.8684 36.3363C94.8684 34.4083 96.4504 32.8263 98.3784 32.8263H240.311C242.239 32.8263 243.821 34.4083 243.821 36.3363C243.821 38.2643 242.239 39.8463 240.311 39.8463Z" fill="#FFEEF0"/>
<path d="M67.2829 38.4122C68.3204 38.4122 69.1615 37.5711 69.1615 36.5336C69.1615 35.4961 68.3204 34.655 67.2829 34.655C66.2454 34.655 65.4043 35.4961 65.4043 36.5336C65.4043 37.5711 66.2454 38.4122 67.2829 38.4122Z" stroke="#277EF1" stroke-width="1.5" stroke-miterlimit="10"/>
<path d="M76.0334 38.4125C77.0709 38.4125 77.912 37.5714 77.912 36.5339C77.912 35.4964 77.0709 34.6553 76.0334 34.6553C74.9959 34.6553 74.1548 35.4964 74.1548 36.5339C74.1548 37.5714 74.9959 38.4125 76.0334 38.4125Z" stroke="#277EF1" stroke-width="1.5" stroke-miterlimit="10"/>
<path d="M84.7834 38.4125C85.8209 38.4125 86.662 37.5714 86.662 36.5339C86.662 35.4964 85.8209 34.6553 84.7834 34.6553C83.7459 34.6553 82.9048 35.4964 82.9048 36.5339C82.9048 37.5714 83.7459 38.4125 84.7834 38.4125Z" stroke="#277EF1" stroke-width="1.5" stroke-miterlimit="10"/>
<path d="M219.548 93.2873H104.558C100.208 93.2873 96.6484 89.7773 96.6484 85.3774C96.6484 81.027 100.158 77.4675 104.558 77.4675H219.548C223.899 77.4675 227.458 80.9775 227.458 85.3774C227.458 89.7773 223.899 93.2873 219.548 93.2873Z" stroke="#277EF1" stroke-width="1.5" stroke-miterlimit="10"/>
<path d="M219.548 77.5166H206.299V93.2869H219.548C223.899 93.2869 227.458 89.7769 227.458 85.377C227.458 81.076 223.899 77.5166 219.548 77.5166Z" fill="#277EF1"/>
<path d="M221.872 89.2333L219.252 86.6132C219.795 85.9211 220.092 85.0312 220.092 84.1413C220.092 81.8672 218.263 80.0381 215.989 80.0381C213.715 80.0381 211.885 81.8672 211.885 84.1413C211.885 86.4154 213.715 88.2446 215.989 88.2446C216.631 88.2446 217.274 88.0963 217.867 87.7997L220.586 90.5187C220.735 90.667 220.982 90.7659 221.229 90.7659C221.476 90.7659 221.723 90.667 221.872 90.5187C222.02 90.3704 222.119 90.1232 222.119 89.876C222.119 89.6288 222.02 89.3816 221.872 89.2333ZM218.906 84.1413C218.906 85.7728 217.571 87.1075 215.939 87.1075C214.308 87.1075 212.973 85.7728 212.973 84.1413C212.973 82.5099 214.308 81.1751 215.939 81.1751C217.571 81.2246 218.906 82.5594 218.906 84.1413Z" fill="white"/>
<path opacity="0.75" d="M137.631 88.8375H104.707C102.828 88.8375 101.295 87.305 101.295 85.4264C101.295 83.5478 102.828 82.0153 104.707 82.0153H137.631C139.51 82.0153 141.043 83.5478 141.043 85.4264C141.043 87.305 139.51 88.8375 137.631 88.8375Z" fill="#E0EBFC"/>
<path d="M207.486 189.689H116.621V194.731H207.486V189.689Z" fill="#FFDEE1"/>
<path opacity="0.75" d="M146.629 110.739H124.382C122.306 110.739 120.576 109.058 120.576 106.932C120.576 104.856 122.257 103.125 124.382 103.125H146.629C148.705 103.125 150.435 104.806 150.435 106.932C150.386 109.008 148.705 110.739 146.629 110.739Z" fill="#E0EBFC"/>
<path d="M124.63 107.871H146.332" stroke="#277EF1" stroke-width="1.5" stroke-miterlimit="10"/>
<path opacity="0.75" d="M199.774 110.738H160.224C158.148 110.738 156.417 109.057 156.417 106.932C156.417 104.855 158.098 103.125 160.224 103.125H199.774C201.85 103.125 203.58 104.806 203.58 106.932C203.531 109.008 201.85 110.738 199.774 110.738Z" fill="#E0EBFC"/>
<path d="M164.673 107.87H195.275" stroke="#277EF1" stroke-width="1.5" stroke-miterlimit="10"/>
<path d="M224.69 51.4639H233.045" stroke="#277EF1" stroke-width="1.5" stroke-miterlimit="10"/>
<path d="M237.098 51.4639H245.404" stroke="#277EF1" stroke-width="1.5" stroke-miterlimit="10"/>
<path opacity="0.75" d="M249.556 49.1899H248.419V50.327H249.556V49.1899Z" fill="#E0EBFC"/>
<path opacity="0.75" d="M251.089 49.1899H249.952V50.327H251.089V49.1899Z" fill="#E0EBFC"/>
<path opacity="0.75" d="M252.671 49.1899H251.534V50.327H252.671V49.1899Z" fill="#E0EBFC"/>
<path opacity="0.75" d="M249.556 50.8701H248.419V52.0072H249.556V50.8701Z" fill="#E0EBFC"/>
<path opacity="0.75" d="M251.089 50.8701H249.952V52.0072H251.089V50.8701Z" fill="#E0EBFC"/>
<path opacity="0.75" d="M252.671 50.8701H251.534V52.0072H252.671V50.8701Z" fill="#E0EBFC"/>
<path opacity="0.75" d="M249.556 52.6005H248.419V53.7375H249.556V52.6005Z" fill="#E0EBFC"/>
<path opacity="0.75" d="M251.089 52.6005H249.952V53.7375H251.089V52.6005Z" fill="#E0EBFC"/>
<path opacity="0.75" d="M252.671 52.6005H251.534V53.7375H252.671V52.6005Z" fill="#E0EBFC"/>
<path opacity="0.75" d="M257.318 54.3309C258.901 54.3309 260.185 53.0471 260.185 51.4635C260.185 49.8799 258.901 48.5962 257.318 48.5962C255.734 48.5962 254.45 49.8799 254.45 51.4635C254.45 53.0471 255.734 54.3309 257.318 54.3309Z" fill="#E0EBFC"/>
<path opacity="0.65" d="M109.996 57.9895H52.8967V79.4945H109.996C111.282 79.4945 112.32 78.4563 112.32 77.171V60.313C112.27 59.0277 111.232 57.9895 109.996 57.9895Z" fill="#FFDEE1"/>
<path d="M259.345 33.5673C259.754 33.5673 260.086 33.2353 260.086 32.8258C260.086 32.4162 259.754 32.0842 259.345 32.0842C258.935 32.0842 258.603 32.4162 258.603 32.8258C258.603 33.2353 258.935 33.5673 259.345 33.5673Z" fill="#277EF1"/>
<path d="M259.345 37.0776C259.754 37.0776 260.086 36.7456 260.086 36.336C260.086 35.9265 259.754 35.5945 259.345 35.5945C258.935 35.5945 258.603 35.9265 258.603 36.336C258.603 36.7456 258.935 37.0776 259.345 37.0776Z" fill="#277EF1"/>
<path d="M259.345 40.5874C259.754 40.5874 260.086 40.2553 260.086 39.8458C260.086 39.4363 259.754 39.1042 259.345 39.1042C258.935 39.1042 258.603 39.4363 258.603 39.8458C258.603 40.2553 258.935 40.5874 259.345 40.5874Z" fill="#277EF1"/>
<path d="M195.275 189.936H148.804" stroke="#FF928D" stroke-width="1.5" stroke-miterlimit="10"/>
<path d="M143.564 189.936H128.386" stroke="#FF928D" stroke-width="1.5" stroke-miterlimit="10"/>
<path opacity="0.65" d="M254.599 153.056H156.862C154.934 153.056 153.352 151.474 153.352 149.546V123.938C153.352 122.01 154.934 120.428 156.862 120.428H254.549C256.477 120.428 258.059 122.01 258.059 123.938V149.546C258.109 151.474 256.527 153.056 254.599 153.056Z" fill="#FFDEE1"/>
<path d="M250.199 150.09H152.462C150.534 150.09 148.952 148.508 148.952 146.58V120.972C148.952 119.044 150.534 117.462 152.462 117.462H250.149C252.077 117.462 253.659 119.044 253.659 120.972V146.58C253.709 148.508 252.127 150.09 250.199 150.09Z" fill="white" stroke="#FF928D" stroke-width="1.5" stroke-miterlimit="10"/>
<path d="M246.788 132.343H185.486C184.448 132.343 183.608 131.502 183.608 130.464C183.608 129.426 184.448 128.585 185.486 128.585H246.788C247.826 128.585 248.666 129.426 248.666 130.464C248.666 131.502 247.826 132.343 246.788 132.343Z" fill="#FFEEF0"/>
<path d="M246.788 138.917H185.486C184.448 138.917 183.608 138.077 183.608 137.039C183.608 136.001 184.448 135.16 185.486 135.16H246.788C247.826 135.16 248.666 136.001 248.666 137.039C248.666 138.077 247.826 138.917 246.788 138.917Z" fill="#FFEEF0"/>
<path d="M246.788 125.768H185.486C184.448 125.768 183.608 124.927 183.608 123.889C183.608 122.851 184.448 122.01 185.486 122.01H246.788C247.826 122.01 248.666 122.851 248.666 123.889C248.666 124.927 247.826 125.768 246.788 125.768Z" fill="#FFEEF0"/>
<path d="M199.032 145.492H185.437C184.399 145.492 183.558 144.652 183.558 143.614C183.558 142.576 184.399 141.735 185.437 141.735H199.032C200.07 141.735 200.91 142.576 200.91 143.614C200.91 144.652 200.07 145.492 199.032 145.492Z" fill="#FFEEF0"/>
<path opacity="0.35" d="M173.72 145.492H155.527C154.044 145.492 152.858 144.306 152.858 142.823V124.63C152.858 123.147 154.044 121.96 155.527 121.96H173.72C175.203 121.96 176.39 123.147 176.39 124.63V142.823C176.39 144.306 175.203 145.492 173.72 145.492Z" fill="#FF796D"/>
<path d="M162.053 126.707L155.577 139.214H168.529L162.053 126.707Z" fill="white"/>
<path d="M168.974 130.81L167.392 133.826L170.21 139.214H173.325L168.974 130.81Z" fill="white"/>
<path d="M171.051 129.821C171.788 129.821 172.385 129.223 172.385 128.486C172.385 127.749 171.788 127.151 171.051 127.151C170.313 127.151 169.716 127.749 169.716 128.486C169.716 129.223 170.313 129.821 171.051 129.821Z" fill="white"/>
<path opacity="0.65" d="M249.606 55.6659H179.9C178.021 55.6659 176.489 54.1334 176.489 52.2548V27.6847C176.489 25.8061 178.021 24.2736 179.9 24.2736H249.606C251.484 24.2736 253.017 25.8061 253.017 27.6847V52.3042C253.017 54.1334 251.484 55.6659 249.606 55.6659Z" fill="#FFDEE1"/>
<path d="M244.415 52.3538H174.709C172.83 52.3538 171.298 50.8212 171.298 48.9426V24.3726C171.298 22.494 172.83 20.9614 174.709 20.9614H244.415C246.293 20.9614 247.826 22.494 247.826 24.3726V48.9426C247.826 50.8212 246.293 52.3538 244.415 52.3538Z" fill="white" stroke="#FF928D" stroke-width="1.5" stroke-miterlimit="10"/>
<path d="M240.658 35.2981H205.854C204.866 35.2981 204.025 34.5071 204.025 33.4689C204.025 32.4802 204.816 31.6398 205.854 31.6398H240.658C241.647 31.6398 242.487 32.4308 242.487 33.4689C242.438 34.5071 241.647 35.2981 240.658 35.2981Z" fill="#FFEEF0"/>
<path d="M240.658 41.6255H205.854C204.866 41.6255 204.025 40.8345 204.025 39.7963C204.025 38.8076 204.816 37.9672 205.854 37.9672H240.658C241.647 37.9672 242.487 38.7581 242.487 39.7963C242.438 40.8345 241.647 41.6255 240.658 41.6255Z" fill="#FFEEF0"/>
<path d="M240.658 29.0192H205.854C204.866 29.0192 204.025 28.2282 204.025 27.19C204.025 26.2013 204.816 25.3608 205.854 25.3608H240.658C241.647 25.3608 242.487 26.1518 242.487 27.19C242.438 28.1787 241.647 29.0192 240.658 29.0192Z" fill="#FFEEF0"/>
<path d="M218.906 47.9535H205.854C204.866 47.9535 204.025 47.1625 204.025 46.1243C204.025 45.1356 204.816 44.2952 205.854 44.2952H218.906C219.894 44.2952 220.735 45.0862 220.735 46.1243C220.735 47.1131 219.894 47.9535 218.906 47.9535Z" fill="#FFEEF0"/>
<path d="M197.944 35.99C197.895 35.1496 197.746 34.3586 197.499 33.5182C197.252 32.6777 196.906 31.9362 196.51 31.1946L194.434 32.1834C194.039 31.5407 193.544 30.9475 193 30.4531L194.335 28.6239C193.05 27.4869 191.567 26.6959 189.935 26.3004L189.144 28.4756C188.403 28.3273 187.661 28.2284 186.92 28.2779L186.574 26.0038C185.733 26.0532 184.942 26.2015 184.102 26.4487C183.261 26.6959 182.52 27.042 181.778 27.4375L182.767 29.5138C182.124 29.9093 181.531 30.4037 181.037 30.9475L179.208 29.6127C178.07 30.898 177.28 32.3811 176.884 34.0125L179.059 34.8035C178.911 35.5451 178.812 36.2866 178.861 37.0282L176.587 37.3742C176.637 38.2147 176.785 39.0057 177.032 39.8461C177.28 40.6865 177.626 41.4281 178.021 42.1696L180.097 41.1809C180.493 41.8235 180.987 42.4168 181.531 42.9112L180.196 44.7403C181.482 45.8774 182.965 46.6683 184.596 47.0638L185.387 44.8886C186.129 45.0369 186.87 45.1358 187.612 45.0864L187.958 47.3605C188.798 47.311 189.589 47.1627 190.43 46.9155C191.27 46.6684 192.012 46.3223 192.753 45.9268L191.764 43.8505C192.407 43.455 193 42.9606 193.495 42.4168L195.324 43.7516C196.461 42.4662 197.252 40.9831 197.647 39.3517L195.472 38.5607C195.621 37.8192 195.719 37.0776 195.67 36.3361L197.944 35.99ZM188.749 41.5764C186.03 42.4168 183.113 40.8842 182.322 38.1158C181.482 35.3968 183.014 32.48 185.783 31.689C188.502 30.8486 191.418 32.3811 192.209 35.1496C193 37.8686 191.468 40.7854 188.749 41.5764Z" fill="#FFEEF0"/>
<path d="M108.81 74.4515H41.378C40.0926 74.4515 39.0544 73.4134 39.0544 72.128V55.4184C39.0544 54.133 40.0926 53.0948 41.378 53.0948H108.81C110.095 53.0948 111.133 54.133 111.133 55.4184V72.1774C111.084 73.4628 110.046 74.4515 108.81 74.4515Z" fill="white" stroke="#FF928D" stroke-width="1.5" stroke-miterlimit="10"/>
<path d="M106.585 62.8838H62.8829C62.1908 62.8838 61.647 62.34 61.647 61.6479C61.647 60.9558 62.1908 60.412 62.8829 60.412H106.585C107.277 60.412 107.821 60.9558 107.821 61.6479C107.821 62.34 107.228 62.8838 106.585 62.8838Z" fill="#FFEEF0"/>
<path d="M106.585 67.1849H62.8829C62.1908 67.1849 61.647 66.641 61.647 65.9489C61.647 65.2568 62.1908 64.713 62.8829 64.713H106.585C107.277 64.713 107.821 65.2568 107.821 65.9489C107.821 66.641 107.228 67.1849 106.585 67.1849Z" fill="#FFEEF0"/>
<path d="M106.585 58.5828H62.8829C62.1908 58.5828 61.647 58.039 61.647 57.3469C61.647 56.6548 62.1908 56.111 62.8829 56.111H106.585C107.277 56.111 107.821 56.6548 107.821 57.3469C107.821 58.039 107.228 58.5828 106.585 58.5828Z" fill="#FFEEF0"/>
<path d="M91.8034 71.4859H62.8829C62.1908 71.4859 61.647 70.9421 61.647 70.25C61.647 69.5578 62.1908 69.014 62.8829 69.014H91.8034C92.4955 69.014 93.0393 69.5578 93.0393 70.25C93.0393 70.8926 92.4461 71.4859 91.8034 71.4859Z" fill="#FFEEF0"/>
<path opacity="0.55" d="M56.1596 70.6453H45.5801C44.7397 70.6453 44.0476 69.9532 44.0476 69.1127V58.5333C44.0476 57.6928 44.7397 57.0007 45.5801 57.0007H56.1596C57 57.0007 57.6922 57.6928 57.6922 58.5333V69.1127C57.6922 69.9532 57 70.6453 56.1596 70.6453Z" fill="#FF796D"/>
<path d="M48.5466 60.4115V67.2338C48.5466 67.827 49.1893 68.1236 49.6837 67.7776L54.3307 64.3665C54.7262 64.0698 54.7262 63.526 54.3307 63.2294L49.6837 59.8183C49.2387 59.4722 48.5466 59.8183 48.5466 60.4115Z" fill="white"/>
<path d="M47.1127 172.139C45.0363 162.351 43.4049 152.315 44.7397 142.329C45.9756 132.985 49.634 123.839 55.4181 115.732C55.9124 114.99 56.4562 114.298 57.0495 113.557C59.2741 110.689 61.7954 108.02 64.6133 105.597C66.6896 103.818 70.1997 105.548 69.2109 107.871C60.5595 127.844 57.2472 149.448 59.6696 170.557" fill="#B5DAE5"/>
<path d="M51.463 163.191C51.3641 153.996 55.3685 144.949 61.7953 138.374C66.4917 133.579 72.3747 130.118 78.8015 128.042C80.9767 127.35 82.707 129.871 81.1745 131.502C77.0218 135.951 73.0174 140.599 69.5568 145.641C64.712 152.612 60.8065 160.324 58.8785 168.58" fill="#B5DAE5"/>
<path d="M42.3173 172.485C39.0545 148.607 32.8749 131.7 21.455 113.21C20.2685 111.282 22.2954 108.959 24.2729 110.046C28.821 112.419 32.8254 116.028 36.0388 120.23C40.6859 126.311 49.3867 137.335 52.0563 163.537" fill="#B5DAE5"/>
<path d="M31.6884 166.107C31.6884 160.62 26.6458 144.405 12.9024 137.137C10.826 136 11.7159 132.787 14.0889 132.886C21.7516 133.281 28.03 136.742 33.0726 141.587C40.142 148.409 44.5914 159.483 45.7284 169.617" fill="#B5DAE5"/>
<path d="M80.2351 130.068C65.7501 137.632 56.0605 152.513 55.3684 168.876C55.3684 168.975 55.5167 168.975 55.5167 168.876C56.456 152.562 65.849 137.83 80.2845 130.167C80.3834 130.118 80.2845 130.019 80.2351 130.068Z" fill="white"/>
<path d="M63.9213 110.689C53.4901 125.57 48.151 143.911 50.2273 162.054C50.2273 162.103 50.3262 162.103 50.3262 162.054C48.5959 143.861 53.6879 125.767 63.9707 110.738C64.0201 110.689 63.9213 110.64 63.9213 110.689Z" fill="white"/>
<path d="M27.3872 114.941C39.1532 127.646 43.9485 144.603 46.7664 161.263C46.7664 161.312 46.8653 161.312 46.8653 161.213C44.2946 144.603 39.2026 127.399 27.4366 114.891C27.4366 114.891 27.3872 114.941 27.3872 114.941Z" fill="white"/>
<path d="M16.0664 135.803C29.5626 141.093 38.1152 154.49 40.2904 168.431C40.2904 168.481 40.3893 168.481 40.3893 168.431C38.7579 154.441 29.3649 140.895 16.0664 135.753C16.0664 135.753 16.017 135.803 16.0664 135.803Z" fill="white"/>
<path d="M24.866 161.164V166.652C24.866 188.503 35.4949 194.732 35.4949 194.732H58.9279C58.9279 194.732 69.5568 188.503 69.5568 166.652V161.164H24.866Z" fill="#FF796D"/>
<path d="M267.749 107.525C267.749 107.525 261.569 114.891 264.387 116.522C267.205 118.154 270.023 117.906 271.012 116.967C272.099 115.978 275.115 113.457 274.522 111.628C273.731 109.008 270.369 106.437 267.749 107.525Z" fill="#FFBEA1"/>
<path d="M267.996 116.819L267.699 122.059L274.027 120.625L272 114.446" fill="#FFBEA1"/>
<g opacity="0.55">
<path d="M272.544 116.423C271.902 116.325 271.308 116.077 270.814 115.682C270.616 115.534 270.419 115.187 270.616 115.039C270.715 114.99 270.864 114.99 271.012 114.99C271.407 114.99 271.753 114.693 272.05 114.347C272.347 114.001 272.693 113.606 272.792 113.111C272.89 112.666 272.742 112.073 272.297 111.875C271.852 111.727 271.407 111.925 271.061 112.271C270.962 112.37 270.864 112.468 270.765 112.468C270.567 112.518 270.369 112.271 270.369 112.073C270.369 111.875 270.468 111.677 270.567 111.48C270.814 110.936 270.864 110.343 270.715 109.799C270.616 109.502 270.517 109.156 270.765 108.958C270.913 108.86 271.16 108.909 271.308 108.958C272.001 109.156 272.693 109.453 273.335 109.799C274.522 110.442 275.313 112.073 275.066 113.408C274.818 114.841 273.583 115.781 272.544 116.423Z" fill="#FF796D"/>
</g>
<path d="M275.016 113.804C274.818 112.716 274.176 111.628 273.236 111.035C271.951 110.244 270.616 109.503 269.232 108.81C268.589 108.514 267.947 108.168 267.65 107.575C267.502 107.229 267.452 106.833 267.452 106.438C267.452 105.795 267.452 105.152 267.65 104.509C267.848 103.916 268.342 103.372 268.935 103.175C269.825 102.878 270.764 103.422 271.457 103.966C273.236 105.399 274.472 107.525 274.868 109.799C275.51 109.601 276.202 109.898 276.598 110.442C276.944 111.035 277.142 113.309 275.016 113.804Z" fill="#FF796D"/>
<path d="M253.017 130.859L237.642 126.607C237.642 126.607 234.527 121.466 233.835 121.565C233.143 121.664 234.972 124.136 234.033 124.284C233.489 124.383 231.759 124.333 231.462 124.037C231.116 123.79 230.226 121.516 229.979 121.516C229.584 121.565 229.93 124.679 230.622 125.372C231.116 125.866 233.193 127.398 234.873 128.239C236.554 129.079 253.116 140.796 256.329 140.252" fill="#EF9D7D"/>
<path d="M246.837 129.03L244.81 128.585L244.118 134.765L249.655 136.841" fill="white"/>
<path d="M278.477 124.877C278.477 124.877 276.697 119.241 270.863 120.18C265.03 121.12 254.45 130.315 254.45 130.315L246.442 128.931L245.7 139.312C245.7 139.312 252.176 142.971 256.23 142.971C264.535 142.971 276.054 127.843 276.054 127.843" fill="#24B3C6"/>
<path d="M266.908 137.582C272.544 133.38 273.879 129.573 276.054 129.573" stroke="#1B5889" stroke-miterlimit="10"/>
<path d="M283.668 168.53C283.668 168.53 289.798 167.442 291.923 167.096C296.027 166.454 300.229 166.404 298.597 164.723C296.422 162.548 286.337 157.901 286.337 157.901L281.146 162.054L283.668 168.53Z" fill="#19202D"/>
<path d="M253.462 187.613L255.835 197.648C252.72 202.197 251.978 197.451 251.978 197.451L246.194 186.624" fill="#FFBEA1"/>
<path d="M256.378 199.527L255.835 197.649C253.214 199.28 251.978 197.451 251.978 197.451L246.837 198.983C245.354 199.478 245.156 201.159 246.194 201.159H255.142C256.032 201.159 256.626 200.318 256.378 199.527Z" fill="#19202D"/>
<path d="M289.204 189.788H299.438C302.898 192.507 298.4 193.396 298.4 193.396L288.265 196.116" fill="#FFBEA1"/>
<path d="M301.366 189.837L299.438 189.788C300.476 192.161 298.399 193.397 298.399 193.397C298.399 193.397 299.289 196.709 299.289 197.055C299.289 197.401 298.35 198.242 298.745 198.785C299.141 199.329 301.316 199.033 301.563 198.291C302.354 196.313 302.849 190.974 302.849 190.974C302.898 190.183 302.255 189.936 301.366 189.837Z" fill="#19202D"/>
<path d="M270.369 155.577C270.369 155.577 254.401 187.365 259.443 194.632C262.311 198.785 267.304 199.329 274.077 199.329C277.092 199.329 292.072 199.329 292.072 199.329L294.593 189.738L272.099 188.601C272.099 188.601 288.413 173.473 289.254 166.898C290.391 158.494 286.287 151.227 286.287 151.227" fill="#277EF1"/>
<path d="M262.904 155.33C262.904 155.33 261.866 157.11 260.778 157.11C256.428 157.11 246.342 157.11 244.118 157.11C237.691 157.11 232.846 160.818 235.071 170.853C237.296 180.889 242.14 194.336 242.14 194.336H255.488L250.594 173.622C250.594 173.622 266.265 173.622 268.638 173.622C276.054 173.622 280.207 167.739 276.746 157.06" fill="#277EF1"/>
<path d="M282.481 162.745C282.481 162.745 283.123 167.195 280.8 172.237C278.773 176.687 272.247 184.448 269.479 188.452C268.985 189.145 269.479 190.133 270.319 190.183L294.098 191.369" stroke="white" stroke-width="0.75" stroke-miterlimit="10"/>
<path d="M253.808 194.385L247.974 172.534C247.826 171.99 248.221 171.447 248.815 171.447H263.349" stroke="white" stroke-width="0.75" stroke-miterlimit="10"/>
<path d="M262.508 173.621L267.007 162.745" stroke="#050D75" stroke-width="0.75" stroke-miterlimit="10"/>
<path d="M265.87 129.672C265.87 129.672 263.942 147.915 262.607 155.874C265.673 161.46 288.166 160.966 289.155 159.977C290.144 158.988 285.497 135.951 281.69 130.414C277.883 124.877 265.87 123.196 265.87 129.672Z" fill="#FFD273"/>
<path d="M272.742 120.23C272.742 120.23 282.58 119.687 286.98 136.347C291.429 153.304 298.597 164.773 298.597 164.773C298.597 164.773 295.878 163.834 291.182 164.328C283.371 165.168 273.632 169.272 273.632 169.272C273.632 169.272 269.974 161.461 267.452 152.018C262.706 134.32 265.87 123.642 265.87 123.642L272.742 120.23Z" fill="#68D7EC"/>
<path d="M269.38 155.479C269.38 155.479 271.308 144.059 270.765 143.564C270.221 143.07 267.699 143.218 267.699 142.823C267.699 142.378 271.407 141.686 270.765 141.093C270.122 140.499 266.711 126.064 268.639 123.74" stroke="#19202D" stroke-width="0.75" stroke-miterlimit="10" stroke-linejoin="round"/>
<path d="M224.937 60.4119C224.937 60.4119 198.785 106.24 198.636 106.586H210.204L236.505 60.4119H224.937Z" fill="url(#paint0_linear_2_1983)"/>
<path d="M242.536 60.4116C242.536 60.4116 216.384 106.239 216.236 106.586H219.894L246.194 60.4116H242.536Z" fill="url(#paint1_linear_2_1983)"/>
<path d="M228.207 104.382L224.354 105.645L229.513 121.383L233.366 120.121L228.207 104.382Z" fill="#FF796D"/>
<path d="M213.517 66.0967C202.69 69.6561 196.807 81.2738 200.366 92.1004C203.926 102.927 215.543 108.81 226.37 105.251C237.197 101.691 243.08 90.0735 239.52 79.2469C235.961 68.4202 224.294 62.5372 213.517 66.0967ZM225.431 102.433C216.137 105.448 206.2 100.406 203.135 91.1611C200.119 81.867 205.162 71.9302 214.406 68.8651C223.7 65.8495 233.637 70.892 236.702 80.1367C239.718 89.4308 234.675 99.417 225.431 102.433Z" fill="#19202D"/>
<path d="M236.406 135.951C234.824 136.446 233.143 135.605 232.599 134.023L225.53 112.518L231.264 110.64L238.334 132.145C238.828 133.727 237.988 135.407 236.406 135.951Z" fill="#19202D"/>
<path d="M273.039 135.358C274.868 136.841 275.708 139.214 276.4 141.488C278.922 149.497 281.097 157.555 285.447 165.316" stroke="#9CE8F2" stroke-width="0.5" stroke-miterlimit="10"/>
<path d="M251.237 134.517L236.851 128.288C236.851 128.288 233.737 123.146 233.044 123.245C232.352 123.344 234.181 125.816 233.242 125.964C232.698 126.063 230.968 126.014 230.671 125.717C230.325 125.47 229.436 123.196 229.188 123.196C228.793 123.245 229.139 126.36 229.831 127.052C230.325 127.546 232.402 129.079 234.083 129.919C235.763 130.76 251.336 144.454 254.549 143.91" fill="#FFBEA1"/>
<path d="M249.062 133.133L244.711 131.403L242.24 137.829L248.221 141.982" fill="white"/>
<path d="M276.746 122.059C276.746 122.059 274.917 119.34 269.133 120.428C265.821 121.07 252.72 134.369 252.72 134.369L246.293 131.996L242.783 143.119C242.783 143.119 250.743 148.112 254.797 148.112C263.102 148.112 274.621 132.985 274.621 132.985" fill="#68D7EC"/>
<path d="M265.475 142.723C271.111 138.521 272.445 134.715 274.621 134.715" stroke="#19202D" stroke-width="0.75" stroke-miterlimit="10" stroke-linejoin="round"/>
<path d="M273.335 157.11L279.663 157.703V158.692H273.978L273.335 157.11Z" fill="#19202D"/>
<path d="M266.81 109.651C266.81 109.651 263.448 111.134 263.448 111.678C263.448 112.271 265.228 112.914 265.228 112.914" fill="#FFBEA1"/>
<path d="M267.996 110.294C267.947 110.195 267.798 110.145 267.7 110.145C267.452 110.195 267.255 110.739 267.304 110.936C267.353 111.085 267.551 111.233 267.7 111.183C267.749 111.134 267.798 111.085 267.848 111.035C267.947 110.887 268.095 110.689 268.095 110.491C268.095 110.442 268.046 110.392 267.996 110.294Z" fill="#19202D"/>
<path d="M267.65 108.909C267.996 109.106 268.342 109.304 268.639 109.601C268.787 109.749 268.935 109.947 269.084 110.144C269.182 110.293 269.232 110.491 269.38 110.589C269.479 110.639 269.578 110.589 269.578 110.491C269.627 110.095 269.182 109.7 268.935 109.403C268.589 109.057 268.194 108.81 267.699 108.76C267.65 108.81 267.6 108.909 267.65 108.909Z" fill="#19202D"/>
<path d="M263.794 114.149C264.387 114.397 265.475 114.693 266.513 114.347" stroke="#EF977F" stroke-width="0.75" stroke-miterlimit="10"/>
<path d="M254.846 89.9255C254.846 85.674 258.257 82.2628 262.508 82.2628H286.93C291.182 82.2628 294.593 85.674 294.593 89.9255C294.593 94.1771 291.182 97.5882 286.93 97.5882H262.508C261.767 97.5882 261.025 97.4893 260.383 97.2916L257.515 99.2691L258.356 96.3523C256.23 94.9681 254.846 92.6445 254.846 89.9255Z" fill="#E0EBFC"/>
<path d="M277.142 91.9021C277.825 91.9021 278.378 91.3488 278.378 90.6662C278.378 89.9836 277.825 89.4303 277.142 89.4303C276.459 89.4303 275.906 89.9836 275.906 90.6662C275.906 91.3488 276.459 91.9021 277.142 91.9021Z" fill="white"/>
<path d="M271.803 91.9021C272.485 91.9021 273.039 91.3488 273.039 90.6662C273.039 89.9836 272.485 89.4303 271.803 89.4303C271.12 89.4303 270.567 89.9836 270.567 90.6662C270.567 91.3488 271.12 91.9021 271.803 91.9021Z" fill="white"/>
<path d="M282.481 91.9021C283.164 91.9021 283.717 91.3488 283.717 90.6662C283.717 89.9836 283.164 89.4303 282.481 89.4303C281.798 89.4303 281.245 89.9836 281.245 90.6662C281.245 91.3488 281.798 91.9021 282.481 91.9021Z" fill="white"/>
<path d="M287.82 91.9021C288.503 91.9021 289.056 91.3488 289.056 90.6662C289.056 89.9836 288.503 89.4303 287.82 89.4303C287.138 89.4303 286.584 89.9836 286.584 90.6662C286.584 91.3488 287.138 91.9021 287.82 91.9021Z" fill="white"/>
<path d="M266.463 91.9021C267.146 91.9021 267.699 91.3488 267.699 90.6662C267.699 89.9836 267.146 89.4303 266.463 89.4303C265.781 89.4303 265.228 89.9836 265.228 90.6662C265.228 91.3488 265.781 91.9021 266.463 91.9021Z" fill="white"/>
<path d="M261.124 91.9024C261.807 91.9024 262.36 91.349 262.36 90.6665C262.36 89.9839 261.807 89.4305 261.124 89.4305C260.442 89.4305 259.888 89.9839 259.888 90.6665C259.888 91.349 260.442 91.9024 261.124 91.9024Z" fill="white"/>
<path d="M100.999 109.651H107.92C107.92 109.651 110.639 107.921 111.875 107.822C113.555 107.673 116.769 107.822 116.621 108.464C116.423 109.107 111.677 109.947 111.825 110.541C111.974 111.084 114.445 110.788 114.445 111.282C114.445 112.271 107.821 112.32 107.821 112.32L97.9829 113.556" fill="#FFBEA1"/>
<path d="M70.3477 83.5973C70.3477 83.5973 80.5811 85.9208 84.2888 92.1993C88.1449 98.7249 93.1874 107.179 93.1874 107.179L107.277 109.65V112.814C107.277 112.814 94.4728 116.127 90.6167 116.127C83.5473 116.127 74.797 97.8845 74.797 97.8845" fill="#FFD273"/>
<path d="M105.992 113.161V109.404" stroke="#050D75" stroke-width="0.75" stroke-miterlimit="10"/>
<path d="M84.3383 196.61C84.3383 196.61 83.3002 197.698 83.3496 199.527C83.3496 200.812 83.5968 201.702 83.5968 201.702H84.1406L84.2889 200.615C84.2889 200.615 85.8215 200.763 87.4034 201.653C88.1944 202.098 91.8527 201.801 92.3965 201.455C92.9898 201.06 92.792 200.466 92.5449 200.269C92.2977 200.021 88.1944 198.538 88.1944 198.538" fill="#19202D"/>
<path d="M77.368 154.638C72.1772 170.507 84.3386 196.659 84.3386 196.659L86.7116 197.598C86.7116 197.598 88.4913 170.112 88.4913 157.011C88.4913 145.937 90.2216 128.189 78.8511 122.85" fill="#FFBEA1"/>
<path d="M86.464 196.61C86.464 196.61 87.8977 198.192 90.0235 199.28C90.7156 199.626 89.8257 200.17 89.1336 200.219C86.909 200.417 83.8933 197.302 83.8933 197.302L84.6349 195.819" fill="#FFBEA1"/>
<path d="M55.5663 199.725C53.9349 201.356 51.562 205.311 53.0451 205.608C54.5282 205.904 58.582 202.098 58.582 202.098V202.444H59.1752C59.1752 202.444 59.6696 200.318 58.7797 199.428" fill="#19202D"/>
<path d="M53.8362 143.96C53.8362 143.96 54.2811 157.753 54.0339 160.225C53.7867 162.696 55.5665 199.23 55.5665 199.725C55.4676 200.417 53.5396 203.136 54.5283 203.136C55.4182 203.136 58.9776 199.972 58.8293 199.379C59.027 198.835 65.0583 178.566 66.3437 170.656C67.8762 161.461 65.9976 155.479 65.9976 155.479L71.0402 125.718" fill="#FFBEA1"/>
<path d="M79.049 119.291C79.049 119.291 86.4151 122.01 88.2937 133.726C89.7768 142.971 89.1835 157.456 89.1835 157.456C89.1835 157.456 86.2668 160.768 75.3412 162.647C60.5597 165.168 54.034 161.609 54.034 161.609C54.034 161.609 51.315 143.169 53.2925 131.403C55.2699 119.39 64.8607 115.237 64.8607 115.237" fill="#277EF1"/>
<path d="M55.8134 162.301C55.8134 162.301 50.4248 127.596 61.2514 118.895" stroke="#050D75" stroke-width="0.75" stroke-miterlimit="10"/>
<path d="M80.2354 92.1994C80.2354 92.1994 80.1365 93.8803 80.7298 94.9184C81.8174 96.8465 83.3005 98.3296 83.3005 102.631C83.3005 105.3 80.977 107.871 80.977 108.711C80.977 109.552 79.1478 118.895 79.1478 118.895C79.1478 118.895 76.7254 118.895 70.002 118.895C62.3393 118.895 59.7686 116.127 59.7686 116.127L53.9351 95.0667L66.8381 84.1907L71.0896 83.7457L80.2354 92.1994Z" fill="#FFD273"/>
<path d="M75.3408 93.0892H79.098" stroke="#050D75" stroke-width="0.75" stroke-miterlimit="10"/>
<path d="M80.2352 92.1995C80.2352 92.1995 80.1363 93.8803 80.7296 94.9185C81.8172 96.8465 83.3003 99.17 83.3003 102.631C83.3003 105.3 80.9767 107.871 80.9767 108.711C80.9767 109.552 79.0981 119.291 79.0981 119.291" stroke="#050D75" stroke-width="0.75" stroke-miterlimit="10"/>
<path d="M84.042 103.422L80.532 119.143H102.927L106.486 103.224C106.585 102.878 106.387 102.582 106.091 102.582H84.9813C84.5364 102.582 84.1409 102.977 84.042 103.422Z" fill="#19202D"/>
<path d="M86.7113 119.143H69.3096L69.4084 118.253C69.4579 117.709 69.9522 117.215 70.5455 117.215H86.9091L86.7113 119.143Z" fill="#19202D"/>
<path d="M95.3627 110.887C95.1156 111.925 94.2257 112.765 93.3358 112.765C92.446 112.765 91.9022 111.925 92.1494 110.887C92.3965 109.849 93.2864 109.008 94.1763 109.008C95.0661 109.008 95.6099 109.849 95.3627 110.887Z" fill="#19202D"/>
<path d="M63.1304 121.219C65.7505 121.219 81.1253 121.219 81.1253 121.219C81.1253 121.219 84.141 121.516 86.5634 121.516C88.9858 121.466 90.4195 119.538 90.4195 119.143C90.4195 118.797 89.0352 119.143 87.0578 119.143C85.8218 119.143 84.9814 119.341 84.8825 119.044C84.6354 118.401 86.9589 118.006 86.514 117.561C86.3657 117.413 85.3275 117.413 84.6354 117.561C82.9051 117.907 81.0759 118.995 81.0759 118.995L66.0471 115.534" fill="#FFBEA1"/>
<path d="M68.222 83.5973C68.222 83.5973 53.9842 84.9815 51.3641 95.4621C48.4473 107.08 55.8134 120.18 59.62 121.268C61.202 121.713 79.0981 121.713 79.0981 121.713L79.9385 118.599L64.8109 115.237L63.1795 95.0666" fill="#FFD273"/>
<path d="M78.3071 118.253L77.8127 121.714" stroke="#050D75" stroke-width="0.75" stroke-miterlimit="10"/>
<path d="M79.8894 118.599L64.7618 115.237L63.1304 95.067" stroke="#050D75" stroke-width="0.75" stroke-miterlimit="10"/>
<path d="M66.4423 70.0517C64.9592 70.4472 63.6245 71.3865 62.6357 72.6224C61.647 73.9078 61.0537 75.5392 60.2628 77.0223C59.8673 77.7639 59.3235 78.456 58.8291 79.1975C58.4336 79.6919 57.5932 80.2851 57.7909 81.0267C57.9887 81.7682 59.1257 82.1143 59.7684 82.2132C60.6088 82.312 61.4987 82.2132 62.3391 82.312C63.0806 82.4109 63.7728 82.7075 64.4649 83.0041C65.9974 83.5974 67.6288 83.9929 69.2602 83.7951C70.249 83.6963 71.1388 83.1525 72.0781 82.9547C73.0669 82.7075 74.2039 82.9053 75.2421 82.9053C75.6376 82.9053 76.0825 82.8558 76.3791 82.6087C76.6263 82.3615 76.7252 81.966 76.7252 81.6199C76.8735 80.1863 76.5274 78.7032 75.7859 77.4672C75.0938 76.2808 74.0556 75.3909 73.3635 74.2044C72.5725 72.8696 72.0287 71.5348 70.7433 70.5955C69.5074 69.6562 67.7277 69.7057 66.4423 70.0517Z" fill="#19202D"/>
<path d="M71.732 80.8784L71.3365 84.5367C71.3365 84.5367 71.0399 85.8221 69.804 85.9209C66.9366 86.1187 66.8872 84.1906 66.8872 84.1906L69.0624 79.593" fill="#FFBEA1"/>
<path d="M69.2107 80.5818C69.2107 80.5818 73.4623 82.5099 75.4892 80.3347C76.6757 79.0987 73.66 72.8203 72.3747 71.9798C71.0893 71.09 68.5186 72.0293 67.9748 73.5124C67.431 74.946 65.9973 78.8021 69.2107 80.5818Z" fill="#FFBEA1"/>
<path d="M73.9568 75.8359C74.1206 75.8359 74.2534 75.7031 74.2534 75.5393C74.2534 75.3755 74.1206 75.2427 73.9568 75.2427C73.793 75.2427 73.6602 75.3755 73.6602 75.5393C73.6602 75.7031 73.793 75.8359 73.9568 75.8359Z" fill="#19202D"/>
<path d="M71.0896 77.0718C71.2534 77.0718 71.3862 76.939 71.3862 76.7751C71.3862 76.6113 71.2534 76.4785 71.0896 76.4785C70.9258 76.4785 70.793 76.6113 70.793 76.7751C70.793 76.939 70.9258 77.0718 71.0896 77.0718Z" fill="#19202D"/>
<path d="M71.5345 75.4899C70.7929 75.1933 69.8042 75.5394 69.7053 76.4292C69.7053 76.4787 69.8042 76.5281 69.8042 76.4786C70.1997 75.836 70.6941 75.4899 71.485 75.6877C71.5345 75.6382 71.6334 75.5393 71.5345 75.4899Z" fill="#19202D"/>
<path d="M74.4014 74.4021C73.8576 73.8583 72.5723 74.2538 72.77 75.1437C72.77 75.1931 72.8689 75.1931 72.8689 75.1437C73.0172 74.8965 73.1161 74.6988 73.3138 74.501C73.6104 74.2538 74.0059 74.3527 74.352 74.501C74.4014 74.501 74.4509 74.4516 74.4014 74.4021Z" fill="#19202D"/>
<path d="M72.8198 75.9348C72.8198 75.9348 74.0557 77.2202 73.9074 77.5168C73.7097 78.0112 72.9681 78.0112 72.9681 78.0112" stroke="#EF977F" stroke-width="0.75" stroke-miterlimit="10"/>
<path d="M73.0173 79.1478L74.6487 78.604C74.6487 78.604 74.9454 79.5433 74.4016 79.7411C73.4128 80.0871 73.0173 79.1478 73.0173 79.1478Z" fill="white"/>
<path d="M71.6825 81.3235C71.6825 81.3235 70.5949 81.3729 69.2107 80.5819" stroke="#EF977F" stroke-width="0.75" stroke-miterlimit="10"/>
<path d="M67.777 78.8021C69.5567 77.5167 70.2488 74.9955 70.5949 72.8202C71.8308 73.1169 73.0173 73.4629 74.2038 73.8584C74.3027 73.2652 74.2038 71.0405 71.4353 70.1507C70.0511 69.7057 68.5186 70.3978 67.5793 71.4855C66.195 73.1169 65.6512 75.391 66.195 77.4673" fill="#19202D"/>
<path d="M68.2715 78.6536C67.2828 77.6649 66.5906 78.2581 66.4423 78.6536C66.294 79.0491 66.4423 79.4941 66.6401 79.8896C66.9367 80.3839 67.3322 80.7794 67.876 80.8783C68.4198 80.9772 69.013 80.5322 69.013 79.9884" fill="#FFBEA1"/>
<path d="M67.5301 82.7074C67.5301 82.7074 68.3705 85.3275 69.7548 85.8713C69.0132 86.4152 67.8267 88.096 67.8267 88.096C66.0964 86.3657 65.9976 83.7456 65.9976 83.7456L67.5301 82.7074Z" fill="white"/>
<path d="M71.4356 83.5972C71.4356 83.5972 70.7929 85.4758 69.8042 85.8713C70.4469 86.4645 71.5345 87.8487 71.5345 87.8487C71.5345 87.8487 72.3255 87.206 72.0783 85.2286C72.0289 84.7836 71.4356 83.5972 71.4356 83.5972Z" fill="white"/>
<path d="M49.0405 75.5885C49.0405 71.3369 45.6294 67.9258 41.3778 67.9258H28.1288C23.8772 67.9258 20.4661 71.3369 20.4661 75.5885C20.4661 79.84 23.8772 83.2512 28.1288 83.2512H41.4272C42.1688 83.2512 42.9104 83.1523 43.553 82.9546L46.4204 84.932L45.5799 82.0153C47.6563 80.631 49.0405 78.2581 49.0405 75.5885Z" fill="#E0EBFC"/>
<path d="M26.7447 77.5663C27.4273 77.5663 27.9806 77.013 27.9806 76.3304C27.9806 75.6478 27.4273 75.0945 26.7447 75.0945C26.0621 75.0945 25.5088 75.6478 25.5088 76.3304C25.5088 77.013 26.0621 77.5663 26.7447 77.5663Z" fill="white"/>
<path d="M32.0841 77.5666C32.7666 77.5666 33.32 77.0132 33.32 76.3306C33.32 75.6481 32.7666 75.0947 32.0841 75.0947C31.4015 75.0947 30.8481 75.6481 30.8481 76.3306C30.8481 77.0132 31.4015 77.5666 32.0841 77.5666Z" fill="white"/>
<path d="M37.4232 77.5666C38.1058 77.5666 38.6591 77.0132 38.6591 76.3306C38.6591 75.6481 38.1058 75.0947 37.4232 75.0947C36.7406 75.0947 36.1873 75.6481 36.1873 76.3306C36.1873 77.0132 36.7406 77.5666 37.4232 77.5666Z" fill="white"/>
<path d="M42.762 77.5666C43.4446 77.5666 43.998 77.0132 43.998 76.3306C43.998 75.6481 43.4446 75.0947 42.762 75.0947C42.0795 75.0947 41.5261 75.6481 41.5261 76.3306C41.5261 77.0132 42.0795 77.5666 42.762 77.5666Z" fill="white"/>
<path d="M42.169 111.48C43.5614 111.48 44.6903 110.351 44.6903 108.959C44.6903 107.566 43.5614 106.437 42.169 106.437C40.7765 106.437 39.6477 107.566 39.6477 108.959C39.6477 110.351 40.7765 111.48 42.169 111.48Z" fill="#FFEEF0"/>
<path d="M304.579 64.2184C306.381 64.2184 307.842 62.7576 307.842 60.9556C307.842 59.1536 306.381 57.6927 304.579 57.6927C302.777 57.6927 301.316 59.1536 301.316 60.9556C301.316 62.7576 302.777 64.2184 304.579 64.2184Z" fill="#FFEEF0"/>
<path d="M136.198 5.04255C137.59 5.04255 138.719 3.91374 138.719 2.52127C138.719 1.12881 137.59 0 136.198 0C134.805 0 133.677 1.12881 133.677 2.52127C133.677 3.91374 134.805 5.04255 136.198 5.04255Z" fill="#FFEEF0"/>
<path d="M40.1916 109.008C41.0653 109.008 41.7736 108.3 41.7736 107.426C41.7736 106.553 41.0653 105.844 40.1916 105.844C39.3179 105.844 38.6096 106.553 38.6096 107.426C38.6096 108.3 39.3179 109.008 40.1916 109.008Z" stroke="#FF796D" stroke-width="2" stroke-miterlimit="10"/>
<path d="M121.466 10.6786C122.339 10.6786 123.048 9.97033 123.048 9.09662C123.048 8.22292 122.339 7.51465 121.466 7.51465C120.592 7.51465 119.884 8.22292 119.884 9.09662C119.884 9.97033 120.592 10.6786 121.466 10.6786Z" stroke="#FF796D" stroke-width="2" stroke-miterlimit="10"/>
<path d="M30.9467 53.5896C31.8204 53.5896 32.5287 52.8813 32.5287 52.0076C32.5287 51.1339 31.8204 50.4257 30.9467 50.4257C30.073 50.4257 29.3647 51.1339 29.3647 52.0076C29.3647 52.8813 30.073 53.5896 30.9467 53.5896Z" stroke="#FF796D" stroke-width="2" stroke-miterlimit="10"/>
<path d="M281.789 71.0897C282.662 71.0897 283.371 70.3815 283.371 69.5078C283.371 68.6341 282.662 67.9258 281.789 67.9258C280.915 67.9258 280.207 68.6341 280.207 69.5078C280.207 70.3815 280.915 71.0897 281.789 71.0897Z" stroke="#FF796D" stroke-width="2" stroke-miterlimit="10"/>
<path d="M291.479 125.47C292.352 125.47 293.061 124.762 293.061 123.889C293.061 123.015 292.352 122.307 291.479 122.307C290.605 122.307 289.897 123.015 289.897 123.889C289.897 124.762 290.605 125.47 291.479 125.47Z" stroke="#FF796D" stroke-width="2" stroke-miterlimit="10"/>
<path d="M33.3199 37.7199C38.5348 37.7199 42.7623 33.4924 42.7623 28.2775C42.7623 23.0626 38.5348 18.8351 33.3199 18.8351C28.105 18.8351 23.8774 23.0626 23.8774 28.2775C23.8774 33.4924 28.105 37.7199 33.3199 37.7199Z" fill="#FFEEF0"/>
<path d="M38.1647 32.0843L35.594 29.4641C36.1378 28.772 36.385 27.8822 36.385 27.0417C36.385 24.8171 34.5558 22.9879 32.3312 22.9879C30.1065 22.9879 28.2773 24.8171 28.2773 27.0417C28.2773 29.2664 30.1065 31.0955 32.3312 31.0955C32.9738 31.0955 33.6165 30.9472 34.2098 30.6506L36.9288 33.3696C37.0771 33.5179 37.3243 33.6168 37.5715 33.6168C37.8186 33.6168 38.0164 33.5179 38.2141 33.3696C38.3624 33.2213 38.4613 32.9741 38.4613 32.727C38.4119 32.4798 38.313 32.2326 38.1647 32.0843ZM35.2479 27.0417C35.2479 28.6731 33.9131 29.9585 32.3312 29.9585C30.6997 29.9585 29.4144 28.6237 29.4144 27.0417C29.4144 25.4103 30.7492 24.125 32.3312 24.125C33.9131 24.125 35.2479 25.4598 35.2479 27.0417Z" fill="white"/>
<path d="M236.752 8.60229L235.764 12.5078C235.665 12.8539 236.11 13.1505 236.456 13.0516L240.213 11.9146C240.509 11.8157 240.608 11.4696 240.361 11.2719L237.593 8.50342C237.296 8.15736 236.802 8.25623 236.752 8.60229Z" stroke="#FF796D" stroke-width="2" stroke-miterlimit="10"/>
<path d="M103.371 177.231L99.4659 178.219C99.1198 178.318 99.0704 178.813 99.3176 179.06L102.086 181.828C102.333 182.075 102.63 181.977 102.729 181.68L103.866 177.923C103.965 177.577 103.668 177.132 103.371 177.231Z" stroke="#FF796D" stroke-width="2" stroke-miterlimit="10"/>
<path d="M10.035 99.7143L11.7653 103.373C11.9136 103.669 12.408 103.669 12.6552 103.323L14.8304 100.06C15.0282 99.8132 14.8798 99.4671 14.5338 99.4671L10.6283 99.0716C10.2328 99.0222 9.88674 99.4177 10.035 99.7143Z" stroke="#FF796D" stroke-width="2" stroke-miterlimit="10"/>
<path d="M303.838 108.612L307.298 106.536C307.595 106.338 307.496 105.844 307.15 105.696L303.689 103.866C303.393 103.718 303.096 103.866 303.096 104.213V108.118C303.096 108.514 303.541 108.81 303.838 108.612Z" stroke="#FF796D" stroke-width="2" stroke-miterlimit="10"/>
<path d="M118.005 139.659C123.902 139.659 128.683 134.878 128.683 128.981C128.683 123.083 123.902 118.302 118.005 118.302C112.108 118.302 107.327 123.083 107.327 128.981C107.327 134.878 112.108 139.659 118.005 139.659Z" fill="#FFEEF0"/>
<path d="M120.032 132.985H112.171C111.677 132.985 111.232 132.589 111.232 132.045V126.36C111.232 125.866 111.628 125.421 112.171 125.421H120.032C120.526 125.421 120.971 125.816 120.971 126.36V132.045C120.971 132.589 120.576 132.985 120.032 132.985Z" fill="white"/>
<path d="M124.827 132.292L122.009 130.958V127.546L124.827 126.212C125.025 126.113 125.223 126.261 125.223 126.459V132.045C125.223 132.243 125.025 132.391 124.827 132.292Z" fill="white"/>
<path d="M293.802 55.468C299.7 55.468 304.48 50.6872 304.48 44.7897C304.48 38.8922 299.7 34.1113 293.802 34.1113C287.905 34.1113 283.124 38.8922 283.124 44.7897C283.124 50.6872 287.905 55.468 293.802 55.468Z" fill="#FFEEF0"/>
<path d="M287.919 44.3451L292.319 49.1899L299.685 40.5879" stroke="white" stroke-width="3.5" stroke-miterlimit="10" stroke-linecap="round" stroke-linejoin="round"/>
<defs>
<linearGradient id="paint0_linear_2_1983" x1="217.561" y1="106.547" x2="217.561" y2="60.3934" gradientUnits="userSpaceOnUse">
<stop stop-color="white" stop-opacity="0.2"/>
<stop offset="0.6741" stop-color="white" stop-opacity="0.6265"/>
<stop offset="0.7903" stop-color="white" stop-opacity="0.7"/>
</linearGradient>
<linearGradient id="paint1_linear_2_1983" x1="231.237" y1="106.547" x2="231.237" y2="60.3932" gradientUnits="userSpaceOnUse">
<stop stop-color="white" stop-opacity="0.2"/>
<stop offset="0.6741" stop-color="white" stop-opacity="0.6265"/>
<stop offset="0.7903" stop-color="white" stop-opacity="0.7"/>
</linearGradient>
</defs>
</svg>
