<svg width="5" height="18" viewBox="0 0 5 18" fill="none" xmlns="http://www.w3.org/2000/svg">
<path d="M0.113543 15.9577L0.113543 15.4653C0.124406 15.4255 0.142511 15.3893 0.149753 15.3495C0.309078 14.3138 1.17088 13.4955 2.18113 13.4267C3.31088 13.347 4.26683 13.9916 4.57824 15.0416C4.61807 15.1792 4.64704 15.3241 4.68325 15.4653V15.9578C4.67238 15.9904 4.65428 16.0193 4.65066 16.0555C4.49496 17.0115 3.80696 17.7393 2.8655 17.9457C2.79308 17.9602 2.72066 17.9819 2.64824 18H2.15578C2.12319 17.9891 2.0906 17.971 2.05801 17.9674C1.11655 17.8153 0.399604 17.1454 0.182324 16.2148C0.160598 16.1243 0.135251 16.041 0.113525 15.9577H0.113543ZM4.68327 2.03861L4.68325 2.53111C4.67238 2.57094 4.65428 2.60715 4.65066 2.64698C4.48771 3.68983 3.62229 4.50456 2.60116 4.56974C1.47503 4.64216 0.5227 3.99038 0.214913 2.93666C0.175082 2.80267 0.146115 2.66509 0.113525 2.53109L0.113525 2.03863C0.124388 2.00604 0.142494 1.97707 0.149736 1.94449C0.323544 1.00302 0.870317 0.387449 1.78281 0.0941464C1.90231 0.0543153 2.02904 0.0325891 2.15216 0L2.64462 0C2.6772 0.010863 2.70979 0.0289682 2.74238 0.0325892C3.68747 0.188293 4.40081 0.85456 4.61807 1.78516C4.63981 1.87207 4.66154 1.95535 4.68327 2.03861ZM4.68325 8.752V9.24446C4.67238 9.28429 4.65428 9.3205 4.64704 9.36033C4.48409 10.3996 3.58608 11.236 2.5722 11.2795C1.43158 11.3302 0.464764 10.6422 0.193188 9.58121C0.16422 9.46896 0.138873 9.35671 0.113525 9.24446L0.113525 8.752C0.124388 8.71217 0.142494 8.67596 0.149736 8.63612C0.30906 7.59689 1.21069 6.76042 2.22458 6.71336C3.3652 6.65905 4.33201 7.35066 4.60359 8.41162C4.63255 8.52749 4.6579 8.63974 4.68325 8.752Z" fill="#FAFAFA"/>
</svg>
