<svg width="12" height="12" viewBox="0 0 12 12" fill="none" xmlns="http://www.w3.org/2000/svg">
<path d="M1.7144 7.71457C1.71429 6.29436 2.86557 5.14299 4.28578 5.14299H7.7142C8.18762 5.14299 8.5714 4.75921 8.5714 4.28579C8.5714 3.81237 8.18762 3.42859 7.7142 3.42859H4.2857C1.91877 3.42859 0 5.34736 0 7.71429C0 10.0812 1.91877 12 4.2857 12H11.1431C11.6165 12 12.0002 11.6162 12.0002 11.1429C12.0002 10.6695 11.6165 10.2857 11.1431 10.2857H4.28578C2.86573 10.2857 1.71451 9.13463 1.7144 7.71457Z" fill="#FAFAFA"/>
<path d="M0.857124 5.74261e-06C0.383749 2.57107e-06 0 0.383748 0 0.857123C0 1.3305 0.383745 1.71424 0.857117 1.71424H7.7141C9.1343 1.71424 10.2856 2.86554 10.2856 4.28574C10.2856 5.70594 9.1343 6.85724 7.7141 6.85724H4.28552C3.81214 6.85724 3.4284 7.24099 3.4284 7.71436C3.4284 8.18773 3.81214 8.57148 4.28552 8.57148H7.7141C10.081 8.57148 11.9998 6.6527 11.9998 4.28577C11.9998 1.91885 10.081 6.75415e-05 7.71411 5.16834e-05L0.857124 5.74261e-06Z" fill="#FAFAFA"/>
</svg>
