<svg width="15" height="15" viewBox="0 0 15 15" fill="none" xmlns="http://www.w3.org/2000/svg">
<path d="M5.35714 2.14286C5.35714 1.57454 5.58291 1.02949 5.98477 0.627628C6.38663 0.225765 6.93168 0 7.5 0C8.06832 0 8.61336 0.225765 9.01523 0.627628C9.41709 1.02949 9.64286 1.57454 9.64286 2.14286V12.8571C9.64286 13.4255 9.41709 13.9705 9.01523 14.3724C8.61336 14.7742 8.06832 15 7.5 15C6.93168 15 6.38663 14.7742 5.98477 14.3724C5.58291 13.9705 5.35714 13.4255 5.35714 12.8571V2.14286ZM0 8.57143C0 8.00311 0.225765 7.45806 0.627628 7.0562C1.02949 6.65434 1.57454 6.42857 2.14286 6.42857C2.71118 6.42857 3.25622 6.65434 3.65809 7.0562C4.05995 7.45806 4.28571 8.00311 4.28571 8.57143V12.8571C4.28571 13.4255 4.05995 13.9705 3.65809 14.3724C3.25622 14.7742 2.71118 15 2.14286 15C1.57454 15 1.02949 14.7742 0.627628 14.3724C0.225765 13.9705 0 13.4255 0 12.8571V8.57143ZM10.7143 6.42857C10.7143 5.86025 10.9401 5.31521 11.3419 4.91334C11.7438 4.51148 12.2888 4.28571 12.8571 4.28571C13.4255 4.28571 13.9705 4.51148 14.3724 4.91334C14.7742 5.31521 15 5.86025 15 6.42857V12.8571C15 13.4255 14.7742 13.9705 14.3724 14.3724C13.9705 14.7742 13.4255 15 12.8571 15C12.2888 15 11.7438 14.7742 11.3419 14.3724C10.9401 13.9705 10.7143 13.4255 10.7143 12.8571V6.42857Z" fill="white"/>
</svg>
