<svg width="13" height="14" viewBox="0 0 13 14" fill="none" xmlns="http://www.w3.org/2000/svg">
<path d="M2.33333 13.5C2.33333 13.7761 2.10948 14 1.83333 14H0.5C0.223857 14 0 13.7761 0 13.5V8.9C0 8.62386 0.223858 8.4 0.5 8.4H1.83333C2.10948 8.4 2.33333 8.62386 2.33333 8.9V13.5ZM8.86667 13.5C8.86667 13.7761 8.64281 14 8.36667 14H7.03333C6.75719 14 6.53333 13.7761 6.53333 13.5V6.1C6.53333 5.82386 6.75719 5.6 7.03333 5.6H8.36667C8.64281 5.6 8.86667 5.82386 8.86667 6.1V13.5ZM12.1333 13.5C12.1333 13.7761 11.9095 14 11.6333 14H10.3C10.0239 14 9.8 13.7761 9.8 13.5V2.83333C9.8 2.55719 10.0239 2.33333 10.3 2.33333H11.6333C11.9095 2.33333 12.1333 2.55719 12.1333 2.83333V13.5ZM5.6 13.5C5.6 13.7761 5.37614 14 5.1 14H3.76667C3.49052 14 3.26667 13.7761 3.26667 13.5V0.5C3.26667 0.223857 3.49052 0 3.76667 0H5.1C5.37614 0 5.6 0.223858 5.6 0.5V13.5Z" fill="white"/>
</svg>
