<svg width="14" height="11" viewBox="0 0 14 11" fill="none" xmlns="http://www.w3.org/2000/svg">
<path d="M9.33325 5.13331C8.73359 5.13331 8.15376 4.86556 7.69993 4.37964C7.25864 3.90569 6.98914 3.27365 6.9416 2.60049C6.89085 1.88241 7.10989 1.22208 7.55818 0.74083C8.00647 0.259582 8.63326 0 9.33325 0C10.0283 0 10.6568 0.264249 11.1037 0.744329C11.5549 1.22908 11.7745 1.88824 11.7237 2.60019C11.675 3.27423 11.4058 3.90598 10.9654 4.37935C10.5127 4.86556 9.93321 5.13331 9.33325 5.13331ZM13.1783 10.2666H5.48852C5.36489 10.2673 5.24275 10.2396 5.13151 10.1856C5.02027 10.1317 4.92288 10.0529 4.84686 9.95541C4.76621 9.84971 4.71052 9.72715 4.68395 9.59688C4.65739 9.46662 4.66063 9.33204 4.69344 9.2032C4.93902 8.21708 5.54744 7.39925 6.45277 6.83838C7.2563 6.3408 8.27917 6.06664 9.33325 6.06664C10.408 6.06664 11.4041 6.32913 12.2123 6.82642C13.1196 7.38438 13.7289 8.20687 13.9734 9.20495C14.0058 9.33388 14.0086 9.46846 13.9818 9.59866C13.9549 9.72885 13.899 9.8513 13.8182 9.95686C13.7422 10.0539 13.6451 10.1323 13.5342 10.186C13.4232 10.2397 13.3015 10.2672 13.1783 10.2666ZM3.82078 5.24997C2.79441 5.24997 1.892 4.29564 1.80829 3.12286C1.76687 2.52203 1.95412 1.96641 2.33329 1.55895C2.70837 1.15558 3.23745 0.933328 3.82078 0.933328C4.40411 0.933328 4.92911 1.15674 5.30623 1.56245C5.68831 1.97311 5.87498 2.52757 5.83123 3.12344C5.74752 4.29594 4.8454 5.24997 3.82078 5.24997ZM5.73585 6.16726C5.22281 5.91643 4.55694 5.79101 3.82107 5.79101C2.96183 5.79101 2.12737 6.01501 1.47113 6.42159C0.727088 6.8833 0.226591 7.55559 0.0244667 8.36729C-0.00511249 8.48404 -0.00791016 8.60597 0.016283 8.72396C0.0404761 8.84194 0.0910338 8.95293 0.164174 9.04862C0.233575 9.13771 0.322486 9.2097 0.424067 9.25905C0.525649 9.3084 0.637196 9.3338 0.75013 9.33328H3.98761C4.04226 9.33328 4.09516 9.31409 4.13711 9.27907C4.17906 9.24405 4.20739 9.19542 4.21715 9.14166C4.22036 9.12329 4.22444 9.10491 4.22911 9.08683C4.47644 8.09342 5.05598 7.254 5.91231 6.64209C5.94381 6.61939 5.96914 6.58918 5.98601 6.55422C6.00289 6.51925 6.01077 6.48062 6.00894 6.44184C6.00712 6.40306 5.99565 6.36534 5.97556 6.33212C5.95548 6.29889 5.92742 6.2712 5.89394 6.25155C5.84814 6.22472 5.79564 6.19643 5.73585 6.16726Z" fill="white"/>
</svg>
