<svg width="22" height="23" viewBox="0 0 22 23" fill="none" xmlns="http://www.w3.org/2000/svg">
<path d="M7.27469 21.9972C6.73799 21.9941 6.21686 21.8165 5.78988 21.4913L3.51316 19.7975C2.98777 19.3879 2.63916 18.7926 2.53894 18.134C2.43871 17.4754 2.59447 16.8033 2.97423 16.256C3.17516 15.9593 3.30286 15.6192 3.34684 15.2635C3.39081 14.9079 3.34981 14.5469 3.2272 14.2102L3.16121 14.0342C3.07584 13.7295 2.9198 13.4492 2.70576 13.216C2.49173 12.9829 2.22573 12.8035 1.92936 12.6924H1.75338C1.11092 12.4764 0.579622 12.0156 0.274849 11.4102C-0.0299232 10.8048 -0.0835594 10.1036 0.125588 9.45882L1.02748 6.59917C1.1105 6.26785 1.26335 5.9581 1.4758 5.69064C1.68824 5.42319 1.95538 5.20421 2.25932 5.04837C2.54237 4.90253 2.85207 4.81564 3.16968 4.79295C3.48728 4.77026 3.80618 4.81226 4.10709 4.91639C4.43472 5.02665 4.78433 5.05523 5.12551 4.99964C5.46671 4.94406 5.78916 4.80598 6.06485 4.59742L6.20783 4.48744C6.45738 4.28831 6.65907 4.03573 6.79803 3.74829C6.93699 3.46086 7.00967 3.14591 7.01073 2.82665V2.56268C7.00777 1.88971 7.27079 1.24282 7.74252 0.762846C8.21425 0.282876 8.85649 0.00869581 9.52941 0H12.3341C12.6615 0.000882301 12.9855 0.0664364 13.2875 0.192897C13.5895 0.319358 13.8635 0.504234 14.0938 0.736908C14.5781 1.22942 14.8471 1.89399 14.8417 2.58468V2.89264C14.8362 3.19593 14.9019 3.49628 15.0338 3.76948C15.1656 4.04268 15.3598 4.28108 15.6007 4.46544L15.7216 4.55343C15.9685 4.73854 16.2564 4.86122 16.5609 4.91101C16.8654 4.9608 17.1775 4.93623 17.4704 4.8394L17.8444 4.71841C18.1612 4.61339 18.4959 4.57325 18.8286 4.60039C19.1613 4.62753 19.4851 4.7214 19.7807 4.87639C20.0763 5.03139 20.3377 5.24433 20.5493 5.50253C20.7608 5.76072 20.9182 6.05887 21.012 6.3792L21.8809 9.15086C22.0819 9.7914 22.027 10.4849 21.7275 11.0858C21.4281 11.6867 20.9075 12.1482 20.2751 12.3735L20.0551 12.4504C19.7316 12.5564 19.439 12.7402 19.2031 12.9856C18.9672 13.2311 18.7952 13.5308 18.7023 13.8583C18.6147 14.1627 18.594 14.4825 18.6414 14.7957C18.6889 15.1089 18.8034 15.4082 18.9772 15.673L19.2632 16.091C19.6424 16.6414 19.7967 17.316 19.6945 17.9766C19.5922 18.6371 19.2412 19.2335 18.7133 19.6435L16.5025 21.3483C16.2355 21.5526 15.9294 21.7 15.6032 21.7815C15.277 21.863 14.9375 21.8769 14.6058 21.8223C14.274 21.7677 13.9569 21.6458 13.6741 21.464C13.3912 21.2822 13.1485 21.0445 12.961 20.7654L12.829 20.5784C12.6489 20.3077 12.4031 20.087 12.1146 19.937C11.8261 19.787 11.5043 19.7125 11.1792 19.7205C10.869 19.7286 10.5651 19.8094 10.2919 19.9565C10.0187 20.1036 9.78386 20.3129 9.6064 20.5674L9.35344 20.9304C9.16584 21.2114 8.92269 21.4511 8.63895 21.6346C8.35521 21.818 8.0369 21.9415 7.70364 21.9972C7.561 22.0112 7.41734 22.0112 7.27469 21.9972ZM2.64427 10.5807C3.26536 10.8021 3.82577 11.1663 4.28043 11.6439C4.73508 12.1215 5.07127 12.6991 5.26195 13.3303V13.4623C5.49944 14.1185 5.57743 14.8218 5.48946 15.5141C5.40148 16.2064 5.15008 16.8679 4.75601 17.4438C4.68645 17.5207 4.64793 17.6206 4.64793 17.7243C4.64793 17.8279 4.68645 17.9279 4.75601 18.0047L7.12071 19.7975C7.15157 19.8218 7.18725 19.8391 7.22536 19.8484C7.26347 19.8577 7.30313 19.8588 7.34168 19.8515C7.38022 19.8442 7.41676 19.8287 7.44884 19.8061C7.48092 19.7835 7.5078 19.7544 7.52766 19.7205L7.78063 19.3576C8.16216 18.8063 8.67168 18.3557 9.26551 18.0445C9.85934 17.7333 10.5198 17.5708 11.1902 17.5708C11.8606 17.5708 12.5211 17.7333 13.1149 18.0445C13.7087 18.3557 14.2183 18.8063 14.5998 19.3576L14.7318 19.5556C14.779 19.6226 14.8496 19.6697 14.9297 19.6875C14.9665 19.693 15.0039 19.6909 15.0399 19.6814C15.0758 19.672 15.1094 19.6553 15.1387 19.6325L17.4044 17.9168C17.4837 17.8538 17.5359 17.7629 17.5502 17.6626C17.5646 17.5624 17.5399 17.4605 17.4814 17.3778L17.1955 16.9599C16.8228 16.4165 16.577 15.7965 16.4761 15.1454C16.3752 14.4944 16.4218 13.829 16.6125 13.1983C16.8058 12.5355 17.1555 11.9288 17.632 11.4293C18.1086 10.9298 18.6982 10.552 19.3512 10.3277L19.5712 10.2507C19.6628 10.214 19.7363 10.1425 19.7754 10.0518C19.8146 9.96116 19.8163 9.85869 19.7801 9.76678L18.9222 7.02812C18.9016 6.9802 18.8715 6.93697 18.8337 6.90105C18.7959 6.86513 18.7512 6.83726 18.7023 6.81915C18.6699 6.80272 18.6341 6.79416 18.5978 6.79416C18.5615 6.79416 18.5257 6.80272 18.4933 6.81915L18.1193 6.94013C17.4868 7.14891 16.8129 7.20093 16.1558 7.09173C15.4987 6.98253 14.8779 6.71536 14.3468 6.31321L14.3028 6.21422C13.7932 5.8283 13.38 5.32951 13.0957 4.757C12.8113 4.18449 12.6636 3.55387 12.664 2.91464V2.57368C12.666 2.46767 12.6266 2.36507 12.554 2.28771C12.4908 2.23053 12.4083 2.19913 12.3231 2.19972H9.52941C9.48461 2.20252 9.44079 2.21414 9.40049 2.23391C9.36018 2.25369 9.32418 2.28123 9.29454 2.31495C9.26491 2.34867 9.24222 2.38792 9.22779 2.43043C9.21336 2.47294 9.20747 2.51788 9.21045 2.56268V2.83765C9.21052 3.4943 9.05982 4.14221 8.76998 4.73144C8.48013 5.32067 8.05887 5.83549 7.53866 6.23622L7.39568 6.34621C6.83445 6.77351 6.17673 7.0562 5.48048 7.16936C4.78424 7.28253 4.07085 7.22269 3.40318 6.99512C3.35322 6.97836 3.29916 6.97836 3.2492 6.99512C3.18713 7.03283 3.14038 7.09127 3.11721 7.1601L2.20433 10.0307C2.17251 10.1285 2.17996 10.2348 2.22512 10.3272C2.27028 10.4196 2.3496 10.4907 2.4463 10.5257L2.64427 10.5807Z" fill="white"/>
<path d="M11.0033 14.8481C10.242 14.8481 9.4977 14.6223 8.86465 14.1994C8.2316 13.7764 7.7382 13.1752 7.44684 12.4717C7.15548 11.7683 7.07924 10.9943 7.22778 10.2476C7.37631 9.50086 7.74294 8.81494 8.28131 8.27658C8.81967 7.73821 9.50559 7.37158 10.2523 7.22305C10.9991 7.07451 11.7731 7.15075 12.4765 7.44211C13.1799 7.73347 13.7811 8.22687 14.2041 8.85992C14.6271 9.49297 14.8528 10.2372 14.8528 10.9986C14.8528 12.0196 14.4473 12.9987 13.7254 13.7206C13.0034 14.4425 12.0243 14.8481 11.0033 14.8481ZM11.0033 9.34881C10.677 9.34881 10.3581 9.44556 10.0868 9.62685C9.81545 9.80813 9.60399 10.0658 9.47912 10.3673C9.35425 10.6687 9.32158 11.0004 9.38524 11.3205C9.44889 11.6405 9.60602 11.9345 9.83675 12.1652C10.0675 12.3959 10.3614 12.553 10.6815 12.6167C11.0015 12.6804 11.3332 12.6477 11.6347 12.5228C11.9361 12.3979 12.1938 12.1865 12.3751 11.9152C12.5564 11.6439 12.6531 11.3249 12.6531 10.9986C12.6531 10.561 12.4793 10.1414 12.1699 9.83202C11.8605 9.52262 11.4409 9.34881 11.0033 9.34881Z" fill="white"/>
</svg>
