<svg width="15" height="14" viewBox="0 0 15 14" fill="none" xmlns="http://www.w3.org/2000/svg">
<path d="M3.06206 7.48024H5.75824V6.64385C5.75824 6.36677 5.98503 6.13996 6.26212 6.13996H8.73814C9.01522 6.13996 9.24203 6.36676 9.24203 6.64385V7.48024H11.937C12.9902 7.48024 14.2276 6.42044 14.9986 5.59968L14.9988 3.6041C14.9988 2.99406 14.5043 2.49962 13.8943 2.49962H10.9898V1.31963C10.9898 0.591618 10.397 0 9.67075 0H5.32913C4.60112 0 4.0089 0.592222 4.0089 1.31963V2.49962H1.10449C0.494449 2.49962 0 2.99406 0 3.6041V5.59912C0.772554 6.41988 2.01004 7.48027 3.06202 7.48027L3.06206 7.48024ZM4.81403 1.31944C4.81403 1.03514 5.0454 0.803773 5.32913 0.803773H9.67076C9.95462 0.803773 10.1859 1.03514 10.1859 1.31944V2.49943H4.81403V1.31944Z" fill="white"/>
<path d="M11.9371 8.28391H9.24212V9.1203C9.24212 9.39738 9.01533 9.62475 8.73823 9.62475H6.26221C5.98513 9.62475 5.75832 9.39737 5.75832 9.1203V8.28391H3.06184C1.94675 8.28391 0.818211 7.48395 0.000244141 6.72906V12.1605C0.000244141 12.77 0.494693 13.2644 1.10473 13.2644H13.8956C14.5056 13.2644 15.0001 12.77 15.0001 12.1605V6.72906C14.1806 7.48391 13.0531 8.28391 11.937 8.28391H11.9371Z" fill="white"/>
</svg>
