<svg width="15" height="9" viewBox="0 0 15 9" fill="none" xmlns="http://www.w3.org/2000/svg">
<path d="M14 8.51219C13.86 8.51209 13.7216 8.4826 13.5938 8.42562C13.564 8.41242 13.5356 8.3963 13.5091 8.3775L10.9244 6.55812C10.7933 6.46585 10.6863 6.34342 10.6125 6.20114C10.5386 6.05887 10.5 5.90093 10.5 5.74063V3.25938C10.5 3.09907 10.5386 2.94113 10.6125 2.79886C10.6863 2.65658 10.7933 2.53415 10.9244 2.44187L13.5091 0.6225C13.5356 0.603701 13.564 0.587581 13.5938 0.574375C13.746 0.506686 13.9128 0.478112 14.0789 0.491251C14.245 0.504389 14.4051 0.558824 14.5449 0.649608C14.6846 0.740392 14.7994 0.864649 14.8789 1.01109C14.9584 1.15753 15 1.3215 15 1.48812V7.51188C15 7.77709 14.8946 8.03145 14.7071 8.21898C14.5196 8.40652 14.2652 8.51188 14 8.51188V8.51219ZM7.875 9H2.125C1.56159 8.99942 1.02143 8.77535 0.623038 8.37696C0.224648 7.97857 0.000579084 7.43841 0 6.875V2.125C0.000579084 1.56159 0.224648 1.02143 0.623038 0.623038C1.02143 0.224648 1.56159 0.000579084 2.125 0H7.89C8.4494 0.000661625 8.98571 0.223177 9.38126 0.618735C9.77682 1.01429 9.99934 1.5506 10 2.11V6.875C9.99942 7.43841 9.77535 7.97857 9.37696 8.37696C8.97857 8.77535 8.43841 8.99942 7.875 9Z" fill="white"/>
</svg>
