<svg width="18" height="14" viewBox="0 0 18 14" fill="none" xmlns="http://www.w3.org/2000/svg">
<path d="M17.0437 1.88438L13.5 3.88125V1.125C13.5 0.826631 13.3815 0.540483 13.1705 0.329505C12.9595 0.118526 12.6734 0 12.375 0H2.25C1.65326 0 1.08097 0.237053 0.65901 0.65901C0.237053 1.08097 0 1.65326 0 2.25V11.25C0 11.8467 0.237053 12.419 0.65901 12.841C1.08097 13.2629 1.65326 13.5 2.25 13.5H12.375C12.6734 13.5 12.9595 13.3815 13.1705 13.1705C13.3815 12.9595 13.5 12.6734 13.5 12.375V9.6075L17.0437 11.6044C17.1347 11.6638 17.2396 11.6982 17.3481 11.7042C17.4565 11.7102 17.5646 11.6875 17.6615 11.6385C17.7584 11.5895 17.8407 11.5158 17.9001 11.4249C17.9595 11.334 17.994 11.2291 18 11.1206V2.3625C17.9931 2.25455 17.958 2.1503 17.8982 2.06015C17.8384 1.97 17.756 1.8971 17.6592 1.84872C17.5625 1.80034 17.4547 1.77817 17.3467 1.78443C17.2387 1.79069 17.1343 1.82515 17.0437 1.88438Z" fill="#FAFAFA"/>
</svg>
