<svg width="12" height="12" viewBox="0 0 12 12" fill="none" xmlns="http://www.w3.org/2000/svg">
<path d="M6 0C2.6916 0 0 2.6916 0 6C0 9.3084 2.6916 12 6 12C9.3084 12 12 9.3084 12 6C12 2.6916 9.3084 0 6 0ZM1.2 6C1.2 5.4606 1.2936 4.9428 1.4586 4.4586L2.4 5.4L3.6 6.6V7.8L4.8 9L5.4 9.6V10.7586C3.0366 10.4616 1.2 8.4432 1.2 6ZM9.798 8.9238C9.4062 8.6082 8.8122 8.4 8.4 8.4V7.8C8.4 7.48174 8.27357 7.17652 8.04853 6.95147C7.82348 6.72643 7.51826 6.6 7.2 6.6H4.8V4.8C5.11826 4.8 5.42348 4.67357 5.64853 4.44853C5.87357 4.22348 6 3.91826 6 3.6V3H6.6C6.91826 3 7.22348 2.87357 7.44853 2.64853C7.67357 2.42348 7.8 2.11826 7.8 1.8V1.5534C9.5568 2.2668 10.8 3.99 10.8 6C10.7999 7.05882 10.4474 8.08748 9.798 8.9238Z" fill="white"/>
</svg>
